G04 PROTEUS GERBER X2 FILE*
%TF.GenerationSoftware,Labcenter,Proteus,8.9-SP0-Build27865*%
%TF.CreationDate,2021-05-25T10:57:55+00:00*%
%TF.FileFunction,AssemblyDrawing,Top*%
%TF.FilePolarity,Positive*%
%TF.Part,Single*%
%TF.SameCoordinates,{e29b0117-a318-4933-b090-4e5cc44ef503}*%
%FSLAX45Y45*%
%MOMM*%
G01*
%TA.AperFunction,Profile*%
%ADD17C,0.203200*%
%TA.AperFunction,Material*%
%ADD70C,0.100000*%
%ADD27C,0.762000*%
%ADD28C,1.200000*%
%ADD29C,1.184000*%
%ADD72C,0.669330*%
%ADD71C,0.203200*%
%ADD73C,0.812800*%
%ADD30C,0.164590*%
%ADD31C,0.458060*%
%ADD32C,0.508060*%
%ADD33C,0.132080*%
%ADD34C,0.105660*%
%ADD35C,0.075470*%
%ADD36C,0.711200*%
%ADD37C,0.106680*%
%ADD38C,0.197270*%
%TD.AperFunction*%
D17*
X-4200000Y+4070000D02*
X+3820000Y+4070000D01*
X+3820000Y+9260000D01*
X-4200000Y+9260000D01*
X-4200000Y+4070000D01*
D70*
X-1943000Y+4677000D02*
X+47000Y+4677000D01*
X+47000Y+9207000D01*
X-1943000Y+9207000D01*
X-1943000Y+4677000D01*
D27*
X-1710000Y+8720000D02*
X-1710000Y+8720000D01*
D28*
X-1308000Y+5982000D02*
X-708000Y+5982000D01*
X-588000Y+6102000D01*
X-588000Y+6582000D01*
X-708000Y+6702000D01*
X-1308000Y+6702000D01*
X-1068000Y+7182000D02*
X-1308000Y+7422000D01*
X-588000Y+7422000D01*
D70*
X-4630000Y+5842000D02*
X-2632000Y+5842000D01*
X-2632000Y+7308000D01*
X-4630000Y+7308000D01*
X-4630000Y+5842000D01*
D29*
X-3980000Y+6540000D02*
X-3980000Y+6540000D01*
D72*
X-4166466Y+6775800D02*
X-4166466Y+6441133D01*
X-4099533Y+6374200D01*
X-3831800Y+6374200D01*
X-3764867Y+6441133D01*
X-3764867Y+6775800D01*
X-3564067Y+6708867D02*
X-3497134Y+6775800D01*
X-3296334Y+6775800D01*
X-3229401Y+6708867D01*
X-3229401Y+6641933D01*
X-3296334Y+6575000D01*
X-3497134Y+6575000D01*
X-3564067Y+6508067D01*
X-3564067Y+6374200D01*
X-3229401Y+6374200D01*
D71*
X-3927160Y+8742840D02*
X-2636840Y+8742840D01*
X-2636840Y+9017160D01*
X-3927160Y+9017160D01*
X-3927160Y+8742840D01*
D73*
X-3790000Y+8880000D02*
X-3790000Y+8880000D01*
D30*
X-3545346Y+8830622D02*
X-3545346Y+8929377D01*
X-3446592Y+8929377D02*
X-3446592Y+8830622D01*
X-3545346Y+8880000D02*
X-3446592Y+8880000D01*
X-3314919Y+8847081D02*
X-3331378Y+8830622D01*
X-3380755Y+8830622D01*
X-3413673Y+8863540D01*
X-3413673Y+8896459D01*
X-3380755Y+8929377D01*
X-3331378Y+8929377D01*
X-3314919Y+8912918D01*
X-3249082Y+8896459D02*
X-3216164Y+8929377D01*
X-3216164Y+8830622D01*
X-3133868Y+8912918D02*
X-3117409Y+8929377D01*
X-3068032Y+8929377D01*
X-3051573Y+8912918D01*
X-3051573Y+8896459D01*
X-3068032Y+8880000D01*
X-3117409Y+8880000D01*
X-3133868Y+8863540D01*
X-3133868Y+8830622D01*
X-3051573Y+8830622D01*
D71*
X-2491160Y+8742840D02*
X-1962840Y+8742840D01*
X-1962840Y+9017160D01*
X-2491160Y+9017160D01*
X-2491160Y+8742840D01*
D73*
X-2100000Y+8880000D02*
X-2100000Y+8880000D01*
D30*
X-2358673Y+8830622D02*
X-2358673Y+8929377D01*
X-2276378Y+8929377D01*
X-2259919Y+8912918D01*
X-2259919Y+8896459D01*
X-2276378Y+8880000D01*
X-2358673Y+8880000D01*
X-2276378Y+8880000D02*
X-2259919Y+8863540D01*
X-2259919Y+8830622D01*
X-2227000Y+8929377D02*
X-2128246Y+8830622D01*
X-2227000Y+8830622D02*
X-2128246Y+8929377D01*
D71*
X-2507160Y+8332840D02*
X-1978840Y+8332840D01*
X-1978840Y+8607160D01*
X-2507160Y+8607160D01*
X-2507160Y+8332840D01*
D73*
X-2370000Y+8470000D02*
X-2370000Y+8470000D01*
D30*
X-2374673Y+8519377D02*
X-2275919Y+8519377D01*
X-2325296Y+8519377D02*
X-2325296Y+8420622D01*
X-2243000Y+8519377D02*
X-2144246Y+8420622D01*
X-2243000Y+8420622D02*
X-2144246Y+8519377D01*
D71*
X+219840Y+6989840D02*
X+2510160Y+6989840D01*
X+2510160Y+8680160D01*
X+219840Y+8680160D01*
X+219840Y+6989840D01*
D73*
X+370000Y+7150000D02*
X+370000Y+7150000D01*
D31*
X+632098Y+7743387D02*
X+677904Y+7697580D01*
X+861129Y+7697580D01*
X+906936Y+7743387D01*
X+906936Y+7789193D01*
X+861129Y+7835000D01*
X+677904Y+7835000D01*
X+632098Y+7880806D01*
X+632098Y+7926612D01*
X+677904Y+7972419D01*
X+861129Y+7972419D01*
X+906936Y+7926612D01*
X+998549Y+7697580D02*
X+998549Y+7972419D01*
X+1227580Y+7972419D01*
X+1273387Y+7926612D01*
X+1273387Y+7880806D01*
X+1227580Y+7835000D01*
X+998549Y+7835000D01*
X+1227580Y+7835000D02*
X+1273387Y+7789193D01*
X+1273387Y+7697580D01*
X+1365000Y+7789193D02*
X+1365000Y+7743387D01*
X+1410806Y+7697580D01*
X+1594031Y+7697580D01*
X+1639838Y+7743387D01*
X+1639838Y+7972419D01*
X+1823063Y+7880806D02*
X+1914676Y+7972419D01*
X+1914676Y+7697580D01*
D71*
X+89840Y+5129840D02*
X+2630160Y+5129840D01*
X+2630160Y+6860160D01*
X+89840Y+6860160D01*
X+89840Y+5129840D01*
D73*
X+2460000Y+6680000D02*
X+2460000Y+6680000D01*
D32*
X+547098Y+5893387D02*
X+597904Y+5842580D01*
X+801129Y+5842580D01*
X+851936Y+5893387D01*
X+851936Y+5944193D01*
X+801129Y+5995000D01*
X+597904Y+5995000D01*
X+547098Y+6045806D01*
X+547098Y+6096612D01*
X+597904Y+6147419D01*
X+801129Y+6147419D01*
X+851936Y+6096612D01*
X+953549Y+6147419D02*
X+1258387Y+6147419D01*
X+1105968Y+6147419D02*
X+1105968Y+5842580D01*
X+1360000Y+5842580D02*
X+1360000Y+6147419D01*
X+1614031Y+6147419D01*
X+1664838Y+6096612D01*
X+1664838Y+6045806D01*
X+1614031Y+5995000D01*
X+1360000Y+5995000D01*
X+1868063Y+6045806D02*
X+1969676Y+6147419D01*
X+1969676Y+5842580D01*
D71*
X+2682840Y+7572840D02*
X+2957160Y+7572840D01*
X+2957160Y+8101160D01*
X+2682840Y+8101160D01*
X+2682840Y+7572840D01*
D73*
X+2820000Y+7710000D02*
X+2820000Y+7710000D01*
D33*
X+2859624Y+7678504D02*
X+2780376Y+7678504D01*
X+2780376Y+7744544D01*
X+2793584Y+7757752D01*
X+2806792Y+7757752D01*
X+2820000Y+7744544D01*
X+2820000Y+7678504D01*
X+2780376Y+7797376D02*
X+2780376Y+7850208D01*
X+2780376Y+7823792D02*
X+2859624Y+7823792D01*
X+2859624Y+7797376D02*
X+2859624Y+7850208D01*
X+2780376Y+7889832D02*
X+2859624Y+7889832D01*
X+2859624Y+7969080D01*
D71*
X+542840Y+8792840D02*
X+1071160Y+8792840D01*
X+1071160Y+9067160D01*
X+542840Y+9067160D01*
X+542840Y+8792840D01*
D73*
X+680000Y+8930000D02*
X+680000Y+8930000D01*
D34*
X+637938Y+8908867D02*
X+648504Y+8898300D01*
X+690769Y+8898300D01*
X+701336Y+8908867D01*
X+701336Y+8919433D01*
X+690769Y+8930000D01*
X+648504Y+8930000D01*
X+637938Y+8940566D01*
X+637938Y+8951132D01*
X+648504Y+8961699D01*
X+690769Y+8961699D01*
X+701336Y+8951132D01*
X+722469Y+8898300D02*
X+722469Y+8940566D01*
X+743601Y+8961699D01*
X+764734Y+8961699D01*
X+785867Y+8940566D01*
X+785867Y+8898300D01*
X+722469Y+8919433D02*
X+785867Y+8919433D01*
X+807000Y+8898300D02*
X+807000Y+8961699D01*
X+859831Y+8961699D01*
X+870398Y+8951132D01*
X+870398Y+8940566D01*
X+859831Y+8930000D01*
X+807000Y+8930000D01*
X+859831Y+8930000D02*
X+870398Y+8919433D01*
X+870398Y+8898300D01*
X+891531Y+8919433D02*
X+891531Y+8908867D01*
X+902097Y+8898300D01*
X+944362Y+8898300D01*
X+954929Y+8908867D01*
X+954929Y+8961699D01*
D71*
X+2672840Y+6842840D02*
X+2947160Y+6842840D01*
X+2947160Y+7371160D01*
X+2672840Y+7371160D01*
X+2672840Y+6842840D01*
D73*
X+2810000Y+6980000D02*
X+2810000Y+6980000D01*
D35*
X+2802453Y+6925863D02*
X+2787358Y+6940957D01*
X+2787358Y+6956052D01*
X+2802453Y+6971147D01*
X+2817548Y+6971147D01*
X+2832643Y+6956052D01*
X+2832643Y+6940957D01*
X+2817548Y+6925863D01*
X+2802453Y+6925863D01*
X+2832643Y+6986242D02*
X+2787358Y+6986242D01*
X+2832643Y+7031526D01*
X+2787358Y+7031526D01*
X+2810000Y+7054168D02*
X+2810000Y+7091905D01*
X+2802453Y+7107000D02*
X+2787358Y+7122094D01*
X+2787358Y+7137189D01*
X+2802453Y+7152284D01*
X+2817548Y+7152284D01*
X+2832643Y+7137189D01*
X+2832643Y+7122094D01*
X+2817548Y+7107000D01*
X+2802453Y+7107000D01*
X+2832643Y+7167379D02*
X+2787358Y+7167379D01*
X+2787358Y+7212663D01*
X+2810000Y+7167379D02*
X+2810000Y+7197568D01*
X+2832643Y+7227758D02*
X+2787358Y+7227758D01*
X+2787358Y+7273042D01*
X+2810000Y+7227758D02*
X+2810000Y+7257947D01*
D71*
X-424900Y+4441100D02*
X+768900Y+4441100D01*
X+768900Y+4618900D01*
X-424900Y+4618900D01*
X-424900Y+4441100D01*
D36*
X+680000Y+4530000D02*
X+680000Y+4530000D01*
D37*
X+86656Y+4497996D02*
X+86656Y+4562004D01*
X+139996Y+4562004D01*
X+150664Y+4551336D01*
X+150664Y+4540668D01*
X+139996Y+4530000D01*
X+86656Y+4530000D01*
X+139996Y+4530000D02*
X+150664Y+4519332D01*
X+150664Y+4497996D01*
X+193336Y+4540668D02*
X+214672Y+4562004D01*
X+214672Y+4497996D01*
D71*
X-1157660Y+4250591D02*
X-565840Y+4250591D01*
X-565840Y+4842411D01*
X-1157660Y+4842411D01*
X-1157660Y+4250591D01*
D73*
X-830000Y+4705251D02*
X-830000Y+4705251D01*
D38*
X-802568Y+4388683D02*
X-920932Y+4388683D01*
X-920932Y+4467592D01*
X-881477Y+4507046D01*
X-842023Y+4507046D01*
X-802568Y+4467592D01*
X-802568Y+4388683D01*
X-881477Y+4585955D02*
X-920932Y+4625410D01*
X-802568Y+4625410D01*
M02*
