G04 PROTEUS GERBER X2 FILE*
%TF.GenerationSoftware,Labcenter,Proteus,8.9-SP0-Build27865*%
%TF.CreationDate,2021-05-25T10:57:55+00:00*%
%TF.FileFunction,Soldermask,Bot*%
%TF.FilePolarity,Negative*%
%TF.Part,Single*%
%TF.SameCoordinates,{e29b0117-a318-4933-b090-4e5cc44ef503}*%
%FSLAX45Y45*%
%MOMM*%
G01*
%AMPPAD013*
4,1,36,
-0.952500,1.079500,
0.952500,1.079500,
0.978470,1.076970,
1.002480,1.069700,
1.024080,1.058150,
1.042790,1.042790,
1.058150,1.024070,
1.069700,1.002480,
1.076970,0.978470,
1.079500,0.952500,
1.079500,-0.952500,
1.076970,-0.978470,
1.069700,-1.002480,
1.058150,-1.024070,
1.042790,-1.042790,
1.024080,-1.058150,
1.002480,-1.069700,
0.978470,-1.076970,
0.952500,-1.079500,
-0.952500,-1.079500,
-0.978470,-1.076970,
-1.002480,-1.069700,
-1.024080,-1.058150,
-1.042790,-1.042790,
-1.058150,-1.024070,
-1.069700,-1.002480,
-1.076970,-0.978470,
-1.079500,-0.952500,
-1.079500,0.952500,
-1.076970,0.978470,
-1.069700,1.002480,
-1.058150,1.024070,
-1.042790,1.042790,
-1.024080,1.058150,
-1.002480,1.069700,
-0.978470,1.076970,
-0.952500,1.079500,
0*%
%TA.AperFunction,Material*%
%ADD21PPAD013*%
%TA.AperFunction,Material*%
%ADD22C,2.960000*%
%ADD23C,2.794000*%
%AMPPAD016*
4,1,36,
-1.016000,1.143000,
1.016000,1.143000,
1.041970,1.140470,
1.065980,1.133200,
1.087580,1.121650,
1.106290,1.106290,
1.121650,1.087570,
1.133200,1.065980,
1.140470,1.041970,
1.143000,1.016000,
1.143000,-1.016000,
1.140470,-1.041970,
1.133200,-1.065980,
1.121650,-1.087570,
1.106290,-1.106290,
1.087580,-1.121650,
1.065980,-1.133200,
1.041970,-1.140470,
1.016000,-1.143000,
-1.016000,-1.143000,
-1.041970,-1.140470,
-1.065980,-1.133200,
-1.087580,-1.121650,
-1.106290,-1.106290,
-1.121650,-1.087570,
-1.133200,-1.065980,
-1.140470,-1.041970,
-1.143000,-1.016000,
-1.143000,1.016000,
-1.140470,1.041970,
-1.133200,1.065980,
-1.121650,1.087570,
-1.106290,1.106290,
-1.087580,1.121650,
-1.065980,1.133200,
-1.041970,1.140470,
-1.016000,1.143000,
0*%
%ADD24PPAD016*%
%AMPPAD017*
4,1,36,
-1.143000,-1.016000,
-1.143000,1.016000,
-1.140470,1.041970,
-1.133200,1.065980,
-1.121650,1.087580,
-1.106290,1.106290,
-1.087570,1.121650,
-1.065980,1.133200,
-1.041970,1.140470,
-1.016000,1.143000,
1.016000,1.143000,
1.041970,1.140470,
1.065980,1.133200,
1.087570,1.121650,
1.106290,1.106290,
1.121650,1.087580,
1.133200,1.065980,
1.140470,1.041970,
1.143000,1.016000,
1.143000,-1.016000,
1.140470,-1.041970,
1.133200,-1.065980,
1.121650,-1.087580,
1.106290,-1.106290,
1.087570,-1.121650,
1.065980,-1.133200,
1.041970,-1.140470,
1.016000,-1.143000,
-1.016000,-1.143000,
-1.041970,-1.140470,
-1.065980,-1.133200,
-1.087570,-1.121650,
-1.106290,-1.106290,
-1.121650,-1.087580,
-1.133200,-1.065980,
-1.140470,-1.041970,
-1.143000,-1.016000,
0*%
%TA.AperFunction,Material*%
%ADD25PPAD017*%
%ADD26C,2.032000*%
%TA.AperFunction,Profile*%
%ADD17C,0.203200*%
%TD.AperFunction*%
D21*
X-1710000Y+8720000D03*
X-1710000Y+8466000D03*
X-1710000Y+8212000D03*
X-1710000Y+7958000D03*
X-1710000Y+7704000D03*
X-1710000Y+7450000D03*
X-1710000Y+7196000D03*
X-1710000Y+6942000D03*
X-1710000Y+6688000D03*
X-1710000Y+6434000D03*
X-1710000Y+6180000D03*
X-1710000Y+5926000D03*
X-1710000Y+5672000D03*
X-1710000Y+5418000D03*
X-1710000Y+5164000D03*
X-186000Y+8720000D03*
X-186000Y+8466000D03*
X-186000Y+8212000D03*
X-186000Y+7958000D03*
X-186000Y+7704000D03*
X-186000Y+7450000D03*
X-186000Y+7196000D03*
X-186000Y+6942000D03*
X-186000Y+6688000D03*
X-186000Y+6434000D03*
X-186000Y+6180000D03*
X-186000Y+5926000D03*
X-186000Y+5672000D03*
X-186000Y+5418000D03*
X-186000Y+5164000D03*
D22*
X-3980000Y+6540000D03*
D23*
X-3200000Y+7060000D03*
X-3340000Y+6790000D03*
D22*
X-2880000Y+6140000D03*
X-3640000Y+6090000D03*
D24*
X-3790000Y+8880000D03*
X-3536000Y+8880000D03*
X-3282000Y+8880000D03*
X-3028000Y+8880000D03*
X-2774000Y+8880000D03*
X-2100000Y+8880000D03*
X-2354000Y+8880000D03*
X-2370000Y+8470000D03*
X-2116000Y+8470000D03*
X+370000Y+7150000D03*
X+370000Y+8550000D03*
X+2370000Y+8550000D03*
X+2370000Y+7150000D03*
X+2460000Y+6680000D03*
X+2460000Y+5280000D03*
X+630000Y+5580000D03*
X+640000Y+6380000D03*
D25*
X+2820000Y+7710000D03*
X+2820000Y+7964000D03*
D24*
X+680000Y+8930000D03*
X+934000Y+8930000D03*
D25*
X+2810000Y+6980000D03*
X+2810000Y+7234000D03*
D26*
X+680000Y+4530000D03*
X-336000Y+4530000D03*
D25*
X-830000Y+4451251D03*
X-830000Y+4705251D03*
D17*
X-4200000Y+4070000D02*
X+3820000Y+4070000D01*
X+3820000Y+9260000D01*
X-4200000Y+9260000D01*
X-4200000Y+4070000D01*
M02*
