G04 PROTEUS GERBER X2 FILE*
%TF.GenerationSoftware,Labcenter,Proteus,8.9-SP0-Build27865*%
%TF.CreationDate,2021-05-25T10:57:55+00:00*%
%TF.FileFunction,Legend,Top*%
%TF.FilePolarity,Positive*%
%TF.Part,Single*%
%TF.SameCoordinates,{e29b0117-a318-4933-b090-4e5cc44ef503}*%
%FSLAX45Y45*%
%MOMM*%
G01*
%TA.AperFunction,Profile*%
%ADD17C,0.203200*%
%TA.AperFunction,Material*%
%ADD70C,0.100000*%
%ADD71C,0.203200*%
%ADD20C,0.063500*%
%TD.AperFunction*%
D17*
X-4200000Y+4070000D02*
X+3820000Y+4070000D01*
X+3820000Y+9260000D01*
X-4200000Y+9260000D01*
X-4200000Y+4070000D01*
D70*
X-1837000Y+8720000D02*
X-1837000Y+5164000D01*
X-59000Y+5164000D02*
X-59000Y+8720000D01*
D71*
X-1963920Y+6815000D02*
X-1887720Y+6815000D01*
X-1872480Y+6830875D01*
X-1872480Y+6894375D01*
X-1887720Y+6910250D01*
X-1963920Y+6910250D01*
X-1933440Y+6973750D02*
X-1963920Y+7005500D01*
X-1872480Y+7005500D01*
D70*
X-3418000Y+7140000D02*
X-4180000Y+7140000D01*
X-4180000Y+5990000D01*
X-3926000Y+5990000D01*
X-2780000Y+6290000D02*
X-2780000Y+7140000D01*
X-2910000Y+7140000D01*
D71*
X-3758000Y+7266920D02*
X-3758000Y+7190720D01*
X-3742125Y+7175480D01*
X-3678625Y+7175480D01*
X-3662750Y+7190720D01*
X-3662750Y+7266920D01*
X-3615125Y+7251680D02*
X-3599250Y+7266920D01*
X-3551625Y+7266920D01*
X-3535750Y+7251680D01*
X-3535750Y+7236440D01*
X-3551625Y+7221200D01*
X-3599250Y+7221200D01*
X-3615125Y+7205960D01*
X-3615125Y+7175480D01*
X-3535750Y+7175480D01*
X-3917000Y+8753000D02*
X-2647000Y+8753000D01*
X-2647000Y+9007000D01*
X-3917000Y+9007000D01*
X-3917000Y+8753000D01*
X-3536000Y+9047640D02*
X-3536000Y+9139080D01*
X-3440750Y+9139080D02*
X-3440750Y+9047640D01*
X-3536000Y+9093360D02*
X-3440750Y+9093360D01*
X-3313750Y+9062880D02*
X-3329625Y+9047640D01*
X-3377250Y+9047640D01*
X-3409000Y+9078120D01*
X-3409000Y+9108600D01*
X-3377250Y+9139080D01*
X-3329625Y+9139080D01*
X-3313750Y+9123840D01*
X-3250250Y+9108600D02*
X-3218500Y+9139080D01*
X-3218500Y+9047640D01*
X-3139125Y+9123840D02*
X-3123250Y+9139080D01*
X-3075625Y+9139080D01*
X-3059750Y+9123840D01*
X-3059750Y+9108600D01*
X-3075625Y+9093360D01*
X-3123250Y+9093360D01*
X-3139125Y+9078120D01*
X-3139125Y+9047640D01*
X-3059750Y+9047640D01*
X-2481000Y+8753000D02*
X-1973000Y+8753000D01*
X-1973000Y+9007000D01*
X-2481000Y+9007000D01*
X-2481000Y+8753000D01*
X-2354000Y+8620920D02*
X-2354000Y+8712360D01*
X-2274625Y+8712360D01*
X-2258750Y+8697120D01*
X-2258750Y+8681880D01*
X-2274625Y+8666640D01*
X-2354000Y+8666640D01*
X-2274625Y+8666640D02*
X-2258750Y+8651400D01*
X-2258750Y+8620920D01*
X-2227000Y+8712360D02*
X-2131750Y+8620920D01*
X-2227000Y+8620920D02*
X-2131750Y+8712360D01*
X-2497000Y+8343000D02*
X-1989000Y+8343000D01*
X-1989000Y+8597000D01*
X-2497000Y+8597000D01*
X-2497000Y+8343000D01*
X-2370000Y+8729080D02*
X-2274750Y+8729080D01*
X-2322375Y+8729080D02*
X-2322375Y+8637640D01*
X-2243000Y+8729080D02*
X-2147750Y+8637640D01*
X-2243000Y+8637640D02*
X-2147750Y+8729080D01*
X+230000Y+7000000D02*
X+2500000Y+7000000D01*
X+2500000Y+8670000D01*
X+230000Y+8670000D01*
X+230000Y+7000000D01*
D20*
X+790000Y+7690420D02*
X+1897440Y+7690420D01*
X+790000Y+7695500D02*
X+1897440Y+7695500D01*
X+790000Y+7700580D02*
X+1897440Y+7700580D01*
X+790000Y+7705660D02*
X+1897440Y+7705660D01*
X+790000Y+7710740D02*
X+1897440Y+7710740D01*
X+790000Y+7715820D02*
X+1897440Y+7715820D01*
X+790000Y+7720900D02*
X+1897440Y+7720900D01*
X+790000Y+7725980D02*
X+1897440Y+7725980D01*
X+790000Y+7731060D02*
X+1897440Y+7731060D01*
X+896680Y+7751380D02*
X+962720Y+7751380D01*
X+1739960Y+7751380D02*
X+1790760Y+7751380D01*
X+876360Y+7756460D02*
X+983040Y+7756460D01*
X+1069400Y+7756460D02*
X+1135440Y+7756460D01*
X+1292920Y+7756460D02*
X+1358960Y+7756460D01*
X+1389440Y+7756460D02*
X+1450400Y+7756460D01*
X+1592640Y+7756460D02*
X+1663760Y+7756460D01*
X+1719640Y+7756460D02*
X+1811080Y+7756460D01*
X+861120Y+7761540D02*
X+998280Y+7761540D01*
X+1074480Y+7761540D02*
X+1135440Y+7761540D01*
X+1292920Y+7761540D02*
X+1353880Y+7761540D01*
X+1389440Y+7761540D02*
X+1450400Y+7761540D01*
X+1587560Y+7761540D02*
X+1658680Y+7761540D01*
X+1709480Y+7761540D02*
X+1821240Y+7761540D01*
X+850960Y+7766620D02*
X+1008440Y+7766620D01*
X+1074480Y+7766620D02*
X+1140520Y+7766620D01*
X+1287840Y+7766620D02*
X+1353880Y+7766620D01*
X+1389440Y+7766620D02*
X+1450400Y+7766620D01*
X+1582480Y+7766620D02*
X+1653600Y+7766620D01*
X+1704400Y+7766620D02*
X+1831400Y+7766620D01*
X+845880Y+7771700D02*
X+1013520Y+7771700D01*
X+1074480Y+7771700D02*
X+1140520Y+7771700D01*
X+1287840Y+7771700D02*
X+1353880Y+7771700D01*
X+1389440Y+7771700D02*
X+1450400Y+7771700D01*
X+1582480Y+7771700D02*
X+1653600Y+7771700D01*
X+1694240Y+7771700D02*
X+1836480Y+7771700D01*
X+840800Y+7776780D02*
X+1018600Y+7776780D01*
X+1079560Y+7776780D02*
X+1140520Y+7776780D01*
X+1287840Y+7776780D02*
X+1348800Y+7776780D01*
X+1389440Y+7776780D02*
X+1450400Y+7776780D01*
X+1577400Y+7776780D02*
X+1648520Y+7776780D01*
X+1694240Y+7776780D02*
X+1841560Y+7776780D01*
X+835720Y+7781860D02*
X+1023680Y+7781860D01*
X+1079560Y+7781860D02*
X+1145600Y+7781860D01*
X+1282760Y+7781860D02*
X+1348800Y+7781860D01*
X+1389440Y+7781860D02*
X+1450400Y+7781860D01*
X+1572320Y+7781860D02*
X+1648520Y+7781860D01*
X+1689160Y+7781860D02*
X+1846640Y+7781860D01*
X+830640Y+7786940D02*
X+1028760Y+7786940D01*
X+1079560Y+7786940D02*
X+1145600Y+7786940D01*
X+1282760Y+7786940D02*
X+1348800Y+7786940D01*
X+1389440Y+7786940D02*
X+1450400Y+7786940D01*
X+1572320Y+7786940D02*
X+1643440Y+7786940D01*
X+1684080Y+7786940D02*
X+1851720Y+7786940D01*
X+825560Y+7792020D02*
X+1033840Y+7792020D01*
X+1084640Y+7792020D02*
X+1145600Y+7792020D01*
X+1282760Y+7792020D02*
X+1343720Y+7792020D01*
X+1389440Y+7792020D02*
X+1450400Y+7792020D01*
X+1567240Y+7792020D02*
X+1638360Y+7792020D01*
X+1679000Y+7792020D02*
X+1851720Y+7792020D01*
X+820480Y+7797100D02*
X+1038920Y+7797100D01*
X+1084640Y+7797100D02*
X+1150680Y+7797100D01*
X+1277680Y+7797100D02*
X+1343720Y+7797100D01*
X+1389440Y+7797100D02*
X+1450400Y+7797100D01*
X+1567240Y+7797100D02*
X+1638360Y+7797100D01*
X+1679000Y+7797100D02*
X+1856800Y+7797100D01*
X+820480Y+7802180D02*
X+906840Y+7802180D01*
X+952560Y+7802180D02*
X+1038920Y+7802180D01*
X+1084640Y+7802180D02*
X+1150680Y+7802180D01*
X+1277680Y+7802180D02*
X+1343720Y+7802180D01*
X+1389440Y+7802180D02*
X+1450400Y+7802180D01*
X+1562160Y+7802180D02*
X+1633280Y+7802180D01*
X+1679000Y+7802180D02*
X+1755200Y+7802180D01*
X+1785680Y+7802180D02*
X+1856800Y+7802180D01*
X+815400Y+7807260D02*
X+896680Y+7807260D01*
X+967800Y+7807260D02*
X+1044000Y+7807260D01*
X+1089720Y+7807260D02*
X+1150680Y+7807260D01*
X+1277680Y+7807260D02*
X+1338640Y+7807260D01*
X+1389440Y+7807260D02*
X+1450400Y+7807260D01*
X+1557080Y+7807260D02*
X+1628200Y+7807260D01*
X+1673920Y+7807260D02*
X+1745040Y+7807260D01*
X+1795840Y+7807260D02*
X+1861880Y+7807260D01*
X+815400Y+7812340D02*
X+886520Y+7812340D01*
X+972880Y+7812340D02*
X+1044000Y+7812340D01*
X+1089720Y+7812340D02*
X+1155760Y+7812340D01*
X+1272600Y+7812340D02*
X+1338640Y+7812340D01*
X+1389440Y+7812340D02*
X+1450400Y+7812340D01*
X+1557080Y+7812340D02*
X+1628200Y+7812340D01*
X+1673920Y+7812340D02*
X+1739960Y+7812340D01*
X+1795840Y+7812340D02*
X+1861880Y+7812340D01*
X+810320Y+7817420D02*
X+881440Y+7817420D01*
X+977960Y+7817420D02*
X+1044000Y+7817420D01*
X+1089720Y+7817420D02*
X+1155760Y+7817420D01*
X+1272600Y+7817420D02*
X+1333560Y+7817420D01*
X+1389440Y+7817420D02*
X+1450400Y+7817420D01*
X+1552000Y+7817420D02*
X+1623120Y+7817420D01*
X+1673920Y+7817420D02*
X+1734880Y+7817420D01*
X+1800920Y+7817420D02*
X+1861880Y+7817420D01*
X+810320Y+7822500D02*
X+876360Y+7822500D01*
X+983040Y+7822500D02*
X+1049080Y+7822500D01*
X+1094800Y+7822500D02*
X+1155760Y+7822500D01*
X+1272600Y+7822500D02*
X+1333560Y+7822500D01*
X+1389440Y+7822500D02*
X+1450400Y+7822500D01*
X+1546920Y+7822500D02*
X+1623120Y+7822500D01*
X+1668840Y+7822500D02*
X+1734880Y+7822500D01*
X+1800920Y+7822500D02*
X+1861880Y+7822500D01*
X+810320Y+7827580D02*
X+876360Y+7827580D01*
X+988120Y+7827580D02*
X+1049080Y+7827580D01*
X+1094800Y+7827580D02*
X+1333560Y+7827580D01*
X+1389440Y+7827580D02*
X+1450400Y+7827580D01*
X+1546920Y+7827580D02*
X+1618040Y+7827580D01*
X+1668840Y+7827580D02*
X+1734880Y+7827580D01*
X+1806000Y+7827580D02*
X+1866960Y+7827580D01*
X+810320Y+7832660D02*
X+871280Y+7832660D01*
X+988120Y+7832660D02*
X+1049080Y+7832660D01*
X+1099880Y+7832660D02*
X+1328480Y+7832660D01*
X+1389440Y+7832660D02*
X+1450400Y+7832660D01*
X+1541840Y+7832660D02*
X+1612960Y+7832660D01*
X+1668840Y+7832660D02*
X+1729800Y+7832660D01*
X+1806000Y+7832660D02*
X+1866960Y+7832660D01*
X+805240Y+7837740D02*
X+871280Y+7837740D01*
X+988120Y+7837740D02*
X+1049080Y+7837740D01*
X+1099880Y+7837740D02*
X+1328480Y+7837740D01*
X+1389440Y+7837740D02*
X+1450400Y+7837740D01*
X+1536760Y+7837740D02*
X+1612960Y+7837740D01*
X+1668840Y+7837740D02*
X+1729800Y+7837740D01*
X+1806000Y+7837740D02*
X+1866960Y+7837740D01*
X+805240Y+7842820D02*
X+871280Y+7842820D01*
X+988120Y+7842820D02*
X+1049080Y+7842820D01*
X+1099880Y+7842820D02*
X+1328480Y+7842820D01*
X+1389440Y+7842820D02*
X+1450400Y+7842820D01*
X+1531680Y+7842820D02*
X+1607880Y+7842820D01*
X+1668840Y+7842820D02*
X+1729800Y+7842820D01*
X+1806000Y+7842820D02*
X+1866960Y+7842820D01*
X+805240Y+7847900D02*
X+866200Y+7847900D01*
X+988120Y+7847900D02*
X+1049080Y+7847900D01*
X+1104960Y+7847900D02*
X+1323400Y+7847900D01*
X+1389440Y+7847900D02*
X+1450400Y+7847900D01*
X+1531680Y+7847900D02*
X+1602800Y+7847900D01*
X+1668840Y+7847900D02*
X+1729800Y+7847900D01*
X+1806000Y+7847900D02*
X+1866960Y+7847900D01*
X+835720Y+7852980D02*
X+866200Y+7852980D01*
X+983040Y+7852980D02*
X+1049080Y+7852980D01*
X+1104960Y+7852980D02*
X+1323400Y+7852980D01*
X+1389440Y+7852980D02*
X+1450400Y+7852980D01*
X+1526600Y+7852980D02*
X+1602800Y+7852980D01*
X+1699320Y+7852980D02*
X+1729800Y+7852980D01*
X+1806000Y+7852980D02*
X+1866960Y+7852980D01*
X+983040Y+7858060D02*
X+1049080Y+7858060D01*
X+1104960Y+7858060D02*
X+1323400Y+7858060D01*
X+1389440Y+7858060D02*
X+1450400Y+7858060D01*
X+1521520Y+7858060D02*
X+1597720Y+7858060D01*
X+1806000Y+7858060D02*
X+1866960Y+7858060D01*
X+977960Y+7863140D02*
X+1049080Y+7863140D01*
X+1110040Y+7863140D02*
X+1318320Y+7863140D01*
X+1389440Y+7863140D02*
X+1450400Y+7863140D01*
X+1516440Y+7863140D02*
X+1592640Y+7863140D01*
X+1806000Y+7863140D02*
X+1866960Y+7863140D01*
X+967800Y+7868220D02*
X+1044000Y+7868220D01*
X+1110040Y+7868220D02*
X+1318320Y+7868220D01*
X+1389440Y+7868220D02*
X+1450400Y+7868220D01*
X+1511360Y+7868220D02*
X+1587560Y+7868220D01*
X+1806000Y+7868220D02*
X+1866960Y+7868220D01*
X+952560Y+7873300D02*
X+1044000Y+7873300D01*
X+1110040Y+7873300D02*
X+1313240Y+7873300D01*
X+1389440Y+7873300D02*
X+1450400Y+7873300D01*
X+1506280Y+7873300D02*
X+1582480Y+7873300D01*
X+1806000Y+7873300D02*
X+1866960Y+7873300D01*
X+932240Y+7878380D02*
X+1044000Y+7878380D01*
X+1115120Y+7878380D02*
X+1176080Y+7878380D01*
X+1252280Y+7878380D02*
X+1313240Y+7878380D01*
X+1389440Y+7878380D02*
X+1450400Y+7878380D01*
X+1491040Y+7878380D02*
X+1577400Y+7878380D01*
X+1806000Y+7878380D02*
X+1866960Y+7878380D01*
X+917000Y+7883460D02*
X+1038920Y+7883460D01*
X+1115120Y+7883460D02*
X+1176080Y+7883460D01*
X+1252280Y+7883460D02*
X+1313240Y+7883460D01*
X+1389440Y+7883460D02*
X+1567240Y+7883460D01*
X+1806000Y+7883460D02*
X+1866960Y+7883460D01*
X+896680Y+7888540D02*
X+1038920Y+7888540D01*
X+1120200Y+7888540D02*
X+1181160Y+7888540D01*
X+1247200Y+7888540D02*
X+1308160Y+7888540D01*
X+1389440Y+7888540D02*
X+1562160Y+7888540D01*
X+1806000Y+7888540D02*
X+1866960Y+7888540D01*
X+881440Y+7893620D02*
X+1033840Y+7893620D01*
X+1120200Y+7893620D02*
X+1181160Y+7893620D01*
X+1247200Y+7893620D02*
X+1308160Y+7893620D01*
X+1389440Y+7893620D02*
X+1582480Y+7893620D01*
X+1806000Y+7893620D02*
X+1866960Y+7893620D01*
X+871280Y+7898700D02*
X+1028760Y+7898700D01*
X+1120200Y+7898700D02*
X+1186240Y+7898700D01*
X+1247200Y+7898700D02*
X+1308160Y+7898700D01*
X+1389440Y+7898700D02*
X+1597720Y+7898700D01*
X+1806000Y+7898700D02*
X+1866960Y+7898700D01*
X+861120Y+7903780D02*
X+1028760Y+7903780D01*
X+1125280Y+7903780D02*
X+1186240Y+7903780D01*
X+1242120Y+7903780D02*
X+1303080Y+7903780D01*
X+1389440Y+7903780D02*
X+1602800Y+7903780D01*
X+1806000Y+7903780D02*
X+1866960Y+7903780D01*
X+850960Y+7908860D02*
X+1023680Y+7908860D01*
X+1125280Y+7908860D02*
X+1186240Y+7908860D01*
X+1242120Y+7908860D02*
X+1303080Y+7908860D01*
X+1389440Y+7908860D02*
X+1612960Y+7908860D01*
X+1806000Y+7908860D02*
X+1866960Y+7908860D01*
X+845880Y+7913940D02*
X+1013520Y+7913940D01*
X+1125280Y+7913940D02*
X+1191320Y+7913940D01*
X+1242120Y+7913940D02*
X+1303080Y+7913940D01*
X+1389440Y+7913940D02*
X+1618040Y+7913940D01*
X+1806000Y+7913940D02*
X+1866960Y+7913940D01*
X+840800Y+7919020D02*
X+1008440Y+7919020D01*
X+1130360Y+7919020D02*
X+1191320Y+7919020D01*
X+1237040Y+7919020D02*
X+1298000Y+7919020D01*
X+1389440Y+7919020D02*
X+1623120Y+7919020D01*
X+1806000Y+7919020D02*
X+1866960Y+7919020D01*
X+835720Y+7924100D02*
X+998280Y+7924100D01*
X+1130360Y+7924100D02*
X+1191320Y+7924100D01*
X+1237040Y+7924100D02*
X+1298000Y+7924100D01*
X+1389440Y+7924100D02*
X+1623120Y+7924100D01*
X+1806000Y+7924100D02*
X+1866960Y+7924100D01*
X+830640Y+7929180D02*
X+983040Y+7929180D01*
X+1130360Y+7929180D02*
X+1196400Y+7929180D01*
X+1231960Y+7929180D02*
X+1298000Y+7929180D01*
X+1389440Y+7929180D02*
X+1628200Y+7929180D01*
X+1806000Y+7929180D02*
X+1866960Y+7929180D01*
X+825560Y+7934260D02*
X+967800Y+7934260D01*
X+1135440Y+7934260D02*
X+1196400Y+7934260D01*
X+1231960Y+7934260D02*
X+1292920Y+7934260D01*
X+1389440Y+7934260D02*
X+1450400Y+7934260D01*
X+1546920Y+7934260D02*
X+1628200Y+7934260D01*
X+1806000Y+7934260D02*
X+1866960Y+7934260D01*
X+825560Y+7939340D02*
X+952560Y+7939340D01*
X+1135440Y+7939340D02*
X+1196400Y+7939340D01*
X+1231960Y+7939340D02*
X+1292920Y+7939340D01*
X+1389440Y+7939340D02*
X+1450400Y+7939340D01*
X+1562160Y+7939340D02*
X+1633280Y+7939340D01*
X+1806000Y+7939340D02*
X+1866960Y+7939340D01*
X+820480Y+7944420D02*
X+932240Y+7944420D01*
X+1135440Y+7944420D02*
X+1201480Y+7944420D01*
X+1226880Y+7944420D02*
X+1287840Y+7944420D01*
X+1389440Y+7944420D02*
X+1450400Y+7944420D01*
X+1567240Y+7944420D02*
X+1633280Y+7944420D01*
X+1806000Y+7944420D02*
X+1866960Y+7944420D01*
X+820480Y+7949500D02*
X+911920Y+7949500D01*
X+1140520Y+7949500D02*
X+1201480Y+7949500D01*
X+1226880Y+7949500D02*
X+1287840Y+7949500D01*
X+1389440Y+7949500D02*
X+1450400Y+7949500D01*
X+1572320Y+7949500D02*
X+1633280Y+7949500D01*
X+1806000Y+7949500D02*
X+1866960Y+7949500D01*
X+820480Y+7954580D02*
X+901760Y+7954580D01*
X+1140520Y+7954580D02*
X+1201480Y+7954580D01*
X+1226880Y+7954580D02*
X+1287840Y+7954580D01*
X+1389440Y+7954580D02*
X+1450400Y+7954580D01*
X+1572320Y+7954580D02*
X+1638360Y+7954580D01*
X+1806000Y+7954580D02*
X+1866960Y+7954580D01*
X+815400Y+7959660D02*
X+891600Y+7959660D01*
X+1145600Y+7959660D02*
X+1206560Y+7959660D01*
X+1221800Y+7959660D02*
X+1282760Y+7959660D01*
X+1389440Y+7959660D02*
X+1450400Y+7959660D01*
X+1577400Y+7959660D02*
X+1638360Y+7959660D01*
X+1806000Y+7959660D02*
X+1866960Y+7959660D01*
X+815400Y+7964740D02*
X+881440Y+7964740D01*
X+1145600Y+7964740D02*
X+1206560Y+7964740D01*
X+1221800Y+7964740D02*
X+1282760Y+7964740D01*
X+1389440Y+7964740D02*
X+1450400Y+7964740D01*
X+1577400Y+7964740D02*
X+1638360Y+7964740D01*
X+1806000Y+7964740D02*
X+1866960Y+7964740D01*
X+815400Y+7969820D02*
X+881440Y+7969820D01*
X+977960Y+7969820D02*
X+1038920Y+7969820D01*
X+1145600Y+7969820D02*
X+1206560Y+7969820D01*
X+1221800Y+7969820D02*
X+1282760Y+7969820D01*
X+1389440Y+7969820D02*
X+1450400Y+7969820D01*
X+1577400Y+7969820D02*
X+1638360Y+7969820D01*
X+1806000Y+7969820D02*
X+1866960Y+7969820D01*
X+815400Y+7974900D02*
X+876360Y+7974900D01*
X+977960Y+7974900D02*
X+1038920Y+7974900D01*
X+1150680Y+7974900D02*
X+1211640Y+7974900D01*
X+1216720Y+7974900D02*
X+1277680Y+7974900D01*
X+1389440Y+7974900D02*
X+1450400Y+7974900D01*
X+1577400Y+7974900D02*
X+1638360Y+7974900D01*
X+1806000Y+7974900D02*
X+1866960Y+7974900D01*
X+815400Y+7979980D02*
X+876360Y+7979980D01*
X+972880Y+7979980D02*
X+1038920Y+7979980D01*
X+1150680Y+7979980D02*
X+1211640Y+7979980D01*
X+1216720Y+7979980D02*
X+1277680Y+7979980D01*
X+1389440Y+7979980D02*
X+1450400Y+7979980D01*
X+1577400Y+7979980D02*
X+1638360Y+7979980D01*
X+1806000Y+7979980D02*
X+1866960Y+7979980D01*
X+815400Y+7985060D02*
X+876360Y+7985060D01*
X+972880Y+7985060D02*
X+1038920Y+7985060D01*
X+1150680Y+7985060D02*
X+1211640Y+7985060D01*
X+1216720Y+7985060D02*
X+1277680Y+7985060D01*
X+1389440Y+7985060D02*
X+1450400Y+7985060D01*
X+1577400Y+7985060D02*
X+1638360Y+7985060D01*
X+1806000Y+7985060D02*
X+1866960Y+7985060D01*
X+815400Y+7990140D02*
X+876360Y+7990140D01*
X+972880Y+7990140D02*
X+1033840Y+7990140D01*
X+1155760Y+7990140D02*
X+1272600Y+7990140D01*
X+1389440Y+7990140D02*
X+1450400Y+7990140D01*
X+1572320Y+7990140D02*
X+1638360Y+7990140D01*
X+1806000Y+7990140D02*
X+1866960Y+7990140D01*
X+815400Y+7995220D02*
X+881440Y+7995220D01*
X+967800Y+7995220D02*
X+1033840Y+7995220D01*
X+1155760Y+7995220D02*
X+1272600Y+7995220D01*
X+1389440Y+7995220D02*
X+1450400Y+7995220D01*
X+1567240Y+7995220D02*
X+1638360Y+7995220D01*
X+1806000Y+7995220D02*
X+1866960Y+7995220D01*
X+820480Y+8000300D02*
X+886520Y+8000300D01*
X+962720Y+8000300D02*
X+1033840Y+8000300D01*
X+1155760Y+8000300D02*
X+1267520Y+8000300D01*
X+1389440Y+8000300D02*
X+1450400Y+8000300D01*
X+1562160Y+8000300D02*
X+1633280Y+8000300D01*
X+1806000Y+8000300D02*
X+1866960Y+8000300D01*
X+820480Y+8005380D02*
X+891600Y+8005380D01*
X+957640Y+8005380D02*
X+1033840Y+8005380D01*
X+1160840Y+8005380D02*
X+1267520Y+8005380D01*
X+1389440Y+8005380D02*
X+1450400Y+8005380D01*
X+1552000Y+8005380D02*
X+1633280Y+8005380D01*
X+1806000Y+8005380D02*
X+1866960Y+8005380D01*
X+820480Y+8010460D02*
X+901760Y+8010460D01*
X+947480Y+8010460D02*
X+1028760Y+8010460D01*
X+1160840Y+8010460D02*
X+1267520Y+8010460D01*
X+1389440Y+8010460D02*
X+1633280Y+8010460D01*
X+1806000Y+8010460D02*
X+1866960Y+8010460D01*
X+825560Y+8015540D02*
X+1028760Y+8015540D01*
X+1165920Y+8015540D02*
X+1262440Y+8015540D01*
X+1389440Y+8015540D02*
X+1628200Y+8015540D01*
X+1806000Y+8015540D02*
X+1866960Y+8015540D01*
X+825560Y+8020620D02*
X+1023680Y+8020620D01*
X+1165920Y+8020620D02*
X+1262440Y+8020620D01*
X+1389440Y+8020620D02*
X+1623120Y+8020620D01*
X+1806000Y+8020620D02*
X+1866960Y+8020620D01*
X+830640Y+8025700D02*
X+1018600Y+8025700D01*
X+1165920Y+8025700D02*
X+1262440Y+8025700D01*
X+1389440Y+8025700D02*
X+1623120Y+8025700D01*
X+1806000Y+8025700D02*
X+1866960Y+8025700D01*
X+835720Y+8030780D02*
X+1013520Y+8030780D01*
X+1171000Y+8030780D02*
X+1257360Y+8030780D01*
X+1389440Y+8030780D02*
X+1618040Y+8030780D01*
X+1806000Y+8030780D02*
X+1866960Y+8030780D01*
X+840800Y+8035860D02*
X+1008440Y+8035860D01*
X+1171000Y+8035860D02*
X+1257360Y+8035860D01*
X+1389440Y+8035860D02*
X+1612960Y+8035860D01*
X+1806000Y+8035860D02*
X+1866960Y+8035860D01*
X+845880Y+8040940D02*
X+1003360Y+8040940D01*
X+1171000Y+8040940D02*
X+1257360Y+8040940D01*
X+1389440Y+8040940D02*
X+1607880Y+8040940D01*
X+1806000Y+8040940D02*
X+1866960Y+8040940D01*
X+850960Y+8046020D02*
X+998280Y+8046020D01*
X+1176080Y+8046020D02*
X+1252280Y+8046020D01*
X+1389440Y+8046020D02*
X+1597720Y+8046020D01*
X+1806000Y+8046020D02*
X+1866960Y+8046020D01*
X+861120Y+8051100D02*
X+988120Y+8051100D01*
X+1176080Y+8051100D02*
X+1252280Y+8051100D01*
X+1389440Y+8051100D02*
X+1587560Y+8051100D01*
X+1806000Y+8051100D02*
X+1866960Y+8051100D01*
X+871280Y+8056180D02*
X+977960Y+8056180D01*
X+1176080Y+8056180D02*
X+1247200Y+8056180D01*
X+1389440Y+8056180D02*
X+1562160Y+8056180D01*
X+1806000Y+8056180D02*
X+1866960Y+8056180D01*
X+891600Y+8061260D02*
X+957640Y+8061260D01*
D71*
X+1111000Y+8725880D02*
X+1126875Y+8710640D01*
X+1190375Y+8710640D01*
X+1206250Y+8725880D01*
X+1206250Y+8741120D01*
X+1190375Y+8756360D01*
X+1126875Y+8756360D01*
X+1111000Y+8771600D01*
X+1111000Y+8786840D01*
X+1126875Y+8802080D01*
X+1190375Y+8802080D01*
X+1206250Y+8786840D01*
X+1238000Y+8710640D02*
X+1238000Y+8802080D01*
X+1317375Y+8802080D01*
X+1333250Y+8786840D01*
X+1333250Y+8771600D01*
X+1317375Y+8756360D01*
X+1238000Y+8756360D01*
X+1317375Y+8756360D02*
X+1333250Y+8741120D01*
X+1333250Y+8710640D01*
X+1365000Y+8741120D02*
X+1365000Y+8725880D01*
X+1380875Y+8710640D01*
X+1444375Y+8710640D01*
X+1460250Y+8725880D01*
X+1460250Y+8802080D01*
X+1523750Y+8771600D02*
X+1555500Y+8802080D01*
X+1555500Y+8710640D01*
X+100000Y+5140000D02*
X+2620000Y+5140000D01*
X+2620000Y+6850000D01*
X+100000Y+6850000D01*
X+100000Y+5140000D01*
D20*
X+2378072Y+5781120D02*
X+2444112Y+5781120D01*
X+813432Y+5786200D02*
X+970912Y+5786200D01*
X+1026792Y+5786200D02*
X+1087752Y+5786200D01*
X+1209672Y+5786200D02*
X+1270632Y+5786200D01*
X+1534792Y+5786200D02*
X+1692272Y+5786200D01*
X+1748152Y+5786200D02*
X+1971672Y+5786200D01*
X+2012312Y+5786200D02*
X+2256152Y+5786200D01*
X+2357752Y+5786200D02*
X+2464432Y+5786200D01*
X+793112Y+5791280D02*
X+970912Y+5791280D01*
X+1026792Y+5791280D02*
X+1087752Y+5791280D01*
X+1209672Y+5791280D02*
X+1270632Y+5791280D01*
X+1514472Y+5791280D02*
X+1692272Y+5791280D01*
X+1748152Y+5791280D02*
X+1971672Y+5791280D01*
X+2012312Y+5791280D02*
X+2256152Y+5791280D01*
X+2347592Y+5791280D02*
X+2474592Y+5791280D01*
X+782952Y+5796360D02*
X+970912Y+5796360D01*
X+1026792Y+5796360D02*
X+1087752Y+5796360D01*
X+1209672Y+5796360D02*
X+1270632Y+5796360D01*
X+1504312Y+5796360D02*
X+1692272Y+5796360D01*
X+1748152Y+5796360D02*
X+1971672Y+5796360D01*
X+2012312Y+5796360D02*
X+2256152Y+5796360D01*
X+2337432Y+5796360D02*
X+2484752Y+5796360D01*
X+777872Y+5801440D02*
X+970912Y+5801440D01*
X+1026792Y+5801440D02*
X+1087752Y+5801440D01*
X+1209672Y+5801440D02*
X+1270632Y+5801440D01*
X+1499232Y+5801440D02*
X+1692272Y+5801440D01*
X+1748152Y+5801440D02*
X+1971672Y+5801440D01*
X+2012312Y+5801440D02*
X+2256152Y+5801440D01*
X+2332352Y+5801440D02*
X+2489832Y+5801440D01*
X+767712Y+5806520D02*
X+970912Y+5806520D01*
X+1026792Y+5806520D02*
X+1087752Y+5806520D01*
X+1209672Y+5806520D02*
X+1270632Y+5806520D01*
X+1489072Y+5806520D02*
X+1692272Y+5806520D01*
X+1748152Y+5806520D02*
X+1971672Y+5806520D01*
X+2012312Y+5806520D02*
X+2256152Y+5806520D01*
X+2327272Y+5806520D02*
X+2494912Y+5806520D01*
X+762632Y+5811600D02*
X+970912Y+5811600D01*
X+1026792Y+5811600D02*
X+1087752Y+5811600D01*
X+1209672Y+5811600D02*
X+1270632Y+5811600D01*
X+1483992Y+5811600D02*
X+1692272Y+5811600D01*
X+1748152Y+5811600D02*
X+1971672Y+5811600D01*
X+2012312Y+5811600D02*
X+2256152Y+5811600D01*
X+2322192Y+5811600D02*
X+2499992Y+5811600D01*
X+762632Y+5816680D02*
X+970912Y+5816680D01*
X+1026792Y+5816680D02*
X+1087752Y+5816680D01*
X+1209672Y+5816680D02*
X+1270632Y+5816680D01*
X+1483992Y+5816680D02*
X+1692272Y+5816680D01*
X+1748152Y+5816680D02*
X+1971672Y+5816680D01*
X+2012312Y+5816680D02*
X+2256152Y+5816680D01*
X+2317112Y+5816680D02*
X+2505072Y+5816680D01*
X+757552Y+5821760D02*
X+970912Y+5821760D01*
X+1026792Y+5821760D02*
X+1087752Y+5821760D01*
X+1209672Y+5821760D02*
X+1270632Y+5821760D01*
X+1478912Y+5821760D02*
X+1692272Y+5821760D01*
X+1748152Y+5821760D02*
X+1971672Y+5821760D01*
X+2012312Y+5821760D02*
X+2256152Y+5821760D01*
X+2312032Y+5821760D02*
X+2510152Y+5821760D01*
X+752472Y+5826840D02*
X+970912Y+5826840D01*
X+1026792Y+5826840D02*
X+1087752Y+5826840D01*
X+1209672Y+5826840D02*
X+1270632Y+5826840D01*
X+1473832Y+5826840D02*
X+1692272Y+5826840D01*
X+1748152Y+5826840D02*
X+1971672Y+5826840D01*
X+2012312Y+5826840D02*
X+2256152Y+5826840D01*
X+2306952Y+5826840D02*
X+2510152Y+5826840D01*
X+752472Y+5831920D02*
X+970912Y+5831920D01*
X+1026792Y+5831920D02*
X+1087752Y+5831920D01*
X+1209672Y+5831920D02*
X+1270632Y+5831920D01*
X+1473832Y+5831920D02*
X+1692272Y+5831920D01*
X+1748152Y+5831920D02*
X+1971672Y+5831920D01*
X+2012312Y+5831920D02*
X+2256152Y+5831920D01*
X+2306952Y+5831920D02*
X+2388232Y+5831920D01*
X+2433952Y+5831920D02*
X+2515232Y+5831920D01*
X+747392Y+5837000D02*
X+833752Y+5837000D01*
X+909952Y+5837000D02*
X+970912Y+5837000D01*
X+1026792Y+5837000D02*
X+1087752Y+5837000D01*
X+1209672Y+5837000D02*
X+1270632Y+5837000D01*
X+1468752Y+5837000D02*
X+1555112Y+5837000D01*
X+1631312Y+5837000D02*
X+1692272Y+5837000D01*
X+1910712Y+5837000D02*
X+1971672Y+5837000D01*
X+2103752Y+5837000D02*
X+2164712Y+5837000D01*
X+2301872Y+5837000D02*
X+2378072Y+5837000D01*
X+2444112Y+5837000D02*
X+2515232Y+5837000D01*
X+747392Y+5842080D02*
X+823592Y+5842080D01*
X+909952Y+5842080D02*
X+970912Y+5842080D01*
X+1026792Y+5842080D02*
X+1087752Y+5842080D01*
X+1209672Y+5842080D02*
X+1270632Y+5842080D01*
X+1468752Y+5842080D02*
X+1544952Y+5842080D01*
X+1631312Y+5842080D02*
X+1692272Y+5842080D01*
X+1910712Y+5842080D02*
X+1971672Y+5842080D01*
X+2103752Y+5842080D02*
X+2164712Y+5842080D01*
X+2301872Y+5842080D02*
X+2372992Y+5842080D01*
X+2449192Y+5842080D02*
X+2515232Y+5842080D01*
X+747392Y+5847160D02*
X+813432Y+5847160D01*
X+909952Y+5847160D02*
X+970912Y+5847160D01*
X+1026792Y+5847160D02*
X+1087752Y+5847160D01*
X+1209672Y+5847160D02*
X+1270632Y+5847160D01*
X+1468752Y+5847160D02*
X+1534792Y+5847160D01*
X+1631312Y+5847160D02*
X+1692272Y+5847160D01*
X+1910712Y+5847160D02*
X+1971672Y+5847160D01*
X+2103752Y+5847160D02*
X+2164712Y+5847160D01*
X+2301872Y+5847160D02*
X+2367912Y+5847160D01*
X+2454272Y+5847160D02*
X+2520312Y+5847160D01*
X+742312Y+5852240D02*
X+813432Y+5852240D01*
X+909952Y+5852240D02*
X+970912Y+5852240D01*
X+1026792Y+5852240D02*
X+1087752Y+5852240D01*
X+1209672Y+5852240D02*
X+1270632Y+5852240D01*
X+1463672Y+5852240D02*
X+1534792Y+5852240D01*
X+1631312Y+5852240D02*
X+1692272Y+5852240D01*
X+1910712Y+5852240D02*
X+1971672Y+5852240D01*
X+2103752Y+5852240D02*
X+2164712Y+5852240D01*
X+2301872Y+5852240D02*
X+2362832Y+5852240D01*
X+2459352Y+5852240D02*
X+2520312Y+5852240D01*
X+742312Y+5857320D02*
X+808352Y+5857320D01*
X+909952Y+5857320D02*
X+970912Y+5857320D01*
X+1026792Y+5857320D02*
X+1087752Y+5857320D01*
X+1209672Y+5857320D02*
X+1270632Y+5857320D01*
X+1463672Y+5857320D02*
X+1529712Y+5857320D01*
X+1631312Y+5857320D02*
X+1692272Y+5857320D01*
X+1910712Y+5857320D02*
X+1971672Y+5857320D01*
X+2103752Y+5857320D02*
X+2164712Y+5857320D01*
X+2296792Y+5857320D02*
X+2362832Y+5857320D01*
X+2459352Y+5857320D02*
X+2520312Y+5857320D01*
X+742312Y+5862400D02*
X+803272Y+5862400D01*
X+909952Y+5862400D02*
X+970912Y+5862400D01*
X+1026792Y+5862400D02*
X+1087752Y+5862400D01*
X+1209672Y+5862400D02*
X+1270632Y+5862400D01*
X+1463672Y+5862400D02*
X+1524632Y+5862400D01*
X+1631312Y+5862400D02*
X+1692272Y+5862400D01*
X+1910712Y+5862400D02*
X+1971672Y+5862400D01*
X+2103752Y+5862400D02*
X+2164712Y+5862400D01*
X+2296792Y+5862400D02*
X+2362832Y+5862400D01*
X+2459352Y+5862400D02*
X+2520312Y+5862400D01*
X+742312Y+5867480D02*
X+803272Y+5867480D01*
X+909952Y+5867480D02*
X+970912Y+5867480D01*
X+1026792Y+5867480D02*
X+1087752Y+5867480D01*
X+1209672Y+5867480D02*
X+1270632Y+5867480D01*
X+1463672Y+5867480D02*
X+1524632Y+5867480D01*
X+1631312Y+5867480D02*
X+1692272Y+5867480D01*
X+1910712Y+5867480D02*
X+1971672Y+5867480D01*
X+2103752Y+5867480D02*
X+2164712Y+5867480D01*
X+2296792Y+5867480D02*
X+2357752Y+5867480D01*
X+2459352Y+5867480D02*
X+2520312Y+5867480D01*
X+742312Y+5872560D02*
X+803272Y+5872560D01*
X+909952Y+5872560D02*
X+970912Y+5872560D01*
X+1026792Y+5872560D02*
X+1087752Y+5872560D01*
X+1209672Y+5872560D02*
X+1270632Y+5872560D01*
X+1463672Y+5872560D02*
X+1524632Y+5872560D01*
X+1631312Y+5872560D02*
X+1692272Y+5872560D01*
X+1910712Y+5872560D02*
X+1971672Y+5872560D01*
X+2103752Y+5872560D02*
X+2164712Y+5872560D01*
X+2296792Y+5872560D02*
X+2357752Y+5872560D01*
X+2454272Y+5872560D02*
X+2520312Y+5872560D01*
X+742312Y+5877640D02*
X+803272Y+5877640D01*
X+909952Y+5877640D02*
X+970912Y+5877640D01*
X+1026792Y+5877640D02*
X+1087752Y+5877640D01*
X+1209672Y+5877640D02*
X+1270632Y+5877640D01*
X+1463672Y+5877640D02*
X+1524632Y+5877640D01*
X+1631312Y+5877640D02*
X+1692272Y+5877640D01*
X+1910712Y+5877640D02*
X+1971672Y+5877640D01*
X+2103752Y+5877640D02*
X+2164712Y+5877640D01*
X+2454272Y+5877640D02*
X+2520312Y+5877640D01*
X+742312Y+5882720D02*
X+803272Y+5882720D01*
X+909952Y+5882720D02*
X+970912Y+5882720D01*
X+1026792Y+5882720D02*
X+1087752Y+5882720D01*
X+1209672Y+5882720D02*
X+1270632Y+5882720D01*
X+1463672Y+5882720D02*
X+1524632Y+5882720D01*
X+1631312Y+5882720D02*
X+1692272Y+5882720D01*
X+1910712Y+5882720D02*
X+1971672Y+5882720D01*
X+2103752Y+5882720D02*
X+2164712Y+5882720D01*
X+2444112Y+5882720D02*
X+2520312Y+5882720D01*
X+742312Y+5887800D02*
X+803272Y+5887800D01*
X+909952Y+5887800D02*
X+970912Y+5887800D01*
X+1026792Y+5887800D02*
X+1087752Y+5887800D01*
X+1209672Y+5887800D02*
X+1270632Y+5887800D01*
X+1463672Y+5887800D02*
X+1524632Y+5887800D01*
X+1631312Y+5887800D02*
X+1692272Y+5887800D01*
X+1910712Y+5887800D02*
X+1971672Y+5887800D01*
X+2103752Y+5887800D02*
X+2164712Y+5887800D01*
X+2433952Y+5887800D02*
X+2515232Y+5887800D01*
X+742312Y+5892880D02*
X+808352Y+5892880D01*
X+909952Y+5892880D02*
X+970912Y+5892880D01*
X+1026792Y+5892880D02*
X+1087752Y+5892880D01*
X+1209672Y+5892880D02*
X+1270632Y+5892880D01*
X+1463672Y+5892880D02*
X+1529712Y+5892880D01*
X+1631312Y+5892880D02*
X+1692272Y+5892880D01*
X+1910712Y+5892880D02*
X+1971672Y+5892880D01*
X+2103752Y+5892880D02*
X+2164712Y+5892880D01*
X+2423792Y+5892880D02*
X+2515232Y+5892880D01*
X+742312Y+5897960D02*
X+808352Y+5897960D01*
X+909952Y+5897960D02*
X+970912Y+5897960D01*
X+1026792Y+5897960D02*
X+1087752Y+5897960D01*
X+1209672Y+5897960D02*
X+1270632Y+5897960D01*
X+1463672Y+5897960D02*
X+1529712Y+5897960D01*
X+1631312Y+5897960D02*
X+1692272Y+5897960D01*
X+1910712Y+5897960D02*
X+1971672Y+5897960D01*
X+2103752Y+5897960D02*
X+2164712Y+5897960D01*
X+2403472Y+5897960D02*
X+2515232Y+5897960D01*
X+747392Y+5903040D02*
X+813432Y+5903040D01*
X+909952Y+5903040D02*
X+970912Y+5903040D01*
X+1026792Y+5903040D02*
X+1087752Y+5903040D01*
X+1209672Y+5903040D02*
X+1270632Y+5903040D01*
X+1468752Y+5903040D02*
X+1534792Y+5903040D01*
X+1631312Y+5903040D02*
X+1692272Y+5903040D01*
X+1758312Y+5903040D02*
X+1971672Y+5903040D01*
X+2103752Y+5903040D02*
X+2164712Y+5903040D01*
X+2383152Y+5903040D02*
X+2510152Y+5903040D01*
X+747392Y+5908120D02*
X+818512Y+5908120D01*
X+909952Y+5908120D02*
X+970912Y+5908120D01*
X+1026792Y+5908120D02*
X+1087752Y+5908120D01*
X+1209672Y+5908120D02*
X+1270632Y+5908120D01*
X+1468752Y+5908120D02*
X+1539872Y+5908120D01*
X+1631312Y+5908120D02*
X+1692272Y+5908120D01*
X+1758312Y+5908120D02*
X+1971672Y+5908120D01*
X+2103752Y+5908120D02*
X+2164712Y+5908120D01*
X+2367912Y+5908120D02*
X+2510152Y+5908120D01*
X+747392Y+5913200D02*
X+823592Y+5913200D01*
X+909952Y+5913200D02*
X+970912Y+5913200D01*
X+1026792Y+5913200D02*
X+1087752Y+5913200D01*
X+1209672Y+5913200D02*
X+1270632Y+5913200D01*
X+1468752Y+5913200D02*
X+1544952Y+5913200D01*
X+1631312Y+5913200D02*
X+1692272Y+5913200D01*
X+1758312Y+5913200D02*
X+1971672Y+5913200D01*
X+2103752Y+5913200D02*
X+2164712Y+5913200D01*
X+2352672Y+5913200D02*
X+2505072Y+5913200D01*
X+747392Y+5918280D02*
X+838832Y+5918280D01*
X+909952Y+5918280D02*
X+970912Y+5918280D01*
X+1026792Y+5918280D02*
X+1087752Y+5918280D01*
X+1209672Y+5918280D02*
X+1270632Y+5918280D01*
X+1468752Y+5918280D02*
X+1560192Y+5918280D01*
X+1631312Y+5918280D02*
X+1692272Y+5918280D01*
X+1758312Y+5918280D02*
X+1971672Y+5918280D01*
X+2103752Y+5918280D02*
X+2164712Y+5918280D01*
X+2337432Y+5918280D02*
X+2499992Y+5918280D01*
X+752472Y+5923360D02*
X+970912Y+5923360D01*
X+1026792Y+5923360D02*
X+1087752Y+5923360D01*
X+1209672Y+5923360D02*
X+1270632Y+5923360D01*
X+1473832Y+5923360D02*
X+1692272Y+5923360D01*
X+1758312Y+5923360D02*
X+1971672Y+5923360D01*
X+2103752Y+5923360D02*
X+2164712Y+5923360D01*
X+2327272Y+5923360D02*
X+2494912Y+5923360D01*
X+757552Y+5928440D02*
X+970912Y+5928440D01*
X+1026792Y+5928440D02*
X+1087752Y+5928440D01*
X+1209672Y+5928440D02*
X+1270632Y+5928440D01*
X+1478912Y+5928440D02*
X+1692272Y+5928440D01*
X+1758312Y+5928440D02*
X+1971672Y+5928440D01*
X+2103752Y+5928440D02*
X+2164712Y+5928440D01*
X+2322192Y+5928440D02*
X+2489832Y+5928440D01*
X+757552Y+5933520D02*
X+970912Y+5933520D01*
X+1026792Y+5933520D02*
X+1087752Y+5933520D01*
X+1209672Y+5933520D02*
X+1270632Y+5933520D01*
X+1478912Y+5933520D02*
X+1692272Y+5933520D01*
X+1758312Y+5933520D02*
X+1971672Y+5933520D01*
X+2103752Y+5933520D02*
X+2164712Y+5933520D01*
X+2317112Y+5933520D02*
X+2484752Y+5933520D01*
X+762632Y+5938600D02*
X+970912Y+5938600D01*
X+1026792Y+5938600D02*
X+1087752Y+5938600D01*
X+1209672Y+5938600D02*
X+1270632Y+5938600D01*
X+1483992Y+5938600D02*
X+1692272Y+5938600D01*
X+1758312Y+5938600D02*
X+1971672Y+5938600D01*
X+2103752Y+5938600D02*
X+2164712Y+5938600D01*
X+2306952Y+5938600D02*
X+2474592Y+5938600D01*
X+767712Y+5943680D02*
X+970912Y+5943680D01*
X+1026792Y+5943680D02*
X+1087752Y+5943680D01*
X+1209672Y+5943680D02*
X+1270632Y+5943680D01*
X+1489072Y+5943680D02*
X+1692272Y+5943680D01*
X+1758312Y+5943680D02*
X+1971672Y+5943680D01*
X+2103752Y+5943680D02*
X+2164712Y+5943680D01*
X+2306952Y+5943680D02*
X+2464432Y+5943680D01*
X+772792Y+5948760D02*
X+970912Y+5948760D01*
X+1026792Y+5948760D02*
X+1087752Y+5948760D01*
X+1209672Y+5948760D02*
X+1270632Y+5948760D01*
X+1494152Y+5948760D02*
X+1692272Y+5948760D01*
X+1758312Y+5948760D02*
X+1971672Y+5948760D01*
X+2103752Y+5948760D02*
X+2164712Y+5948760D01*
X+2301872Y+5948760D02*
X+2454272Y+5948760D01*
X+777872Y+5953840D02*
X+970912Y+5953840D01*
X+1026792Y+5953840D02*
X+1087752Y+5953840D01*
X+1209672Y+5953840D02*
X+1270632Y+5953840D01*
X+1499232Y+5953840D02*
X+1692272Y+5953840D01*
X+1910712Y+5953840D02*
X+1971672Y+5953840D01*
X+2103752Y+5953840D02*
X+2164712Y+5953840D01*
X+2296792Y+5953840D02*
X+2439032Y+5953840D01*
X+788032Y+5958920D02*
X+970912Y+5958920D01*
X+1026792Y+5958920D02*
X+1087752Y+5958920D01*
X+1209672Y+5958920D02*
X+1270632Y+5958920D01*
X+1306192Y+5958920D02*
X+1423032Y+5958920D01*
X+1509392Y+5958920D02*
X+1692272Y+5958920D01*
X+1910712Y+5958920D02*
X+1971672Y+5958920D01*
X+2103752Y+5958920D02*
X+2164712Y+5958920D01*
X+2296792Y+5958920D02*
X+2418712Y+5958920D01*
X+798192Y+5964000D02*
X+970912Y+5964000D01*
X+1026792Y+5964000D02*
X+1087752Y+5964000D01*
X+1209672Y+5964000D02*
X+1270632Y+5964000D01*
X+1306192Y+5964000D02*
X+1423032Y+5964000D01*
X+1519552Y+5964000D02*
X+1692272Y+5964000D01*
X+1910712Y+5964000D02*
X+1971672Y+5964000D01*
X+2103752Y+5964000D02*
X+2164712Y+5964000D01*
X+2291712Y+5964000D02*
X+2403472Y+5964000D01*
X+818512Y+5969080D02*
X+970912Y+5969080D01*
X+1026792Y+5969080D02*
X+1087752Y+5969080D01*
X+1209672Y+5969080D02*
X+1270632Y+5969080D01*
X+1306192Y+5969080D02*
X+1423032Y+5969080D01*
X+1539872Y+5969080D02*
X+1692272Y+5969080D01*
X+1910712Y+5969080D02*
X+1971672Y+5969080D01*
X+2103752Y+5969080D02*
X+2164712Y+5969080D01*
X+2291712Y+5969080D02*
X+2383152Y+5969080D01*
X+909952Y+5974160D02*
X+970912Y+5974160D01*
X+1026792Y+5974160D02*
X+1087752Y+5974160D01*
X+1209672Y+5974160D02*
X+1270632Y+5974160D01*
X+1306192Y+5974160D02*
X+1423032Y+5974160D01*
X+1631312Y+5974160D02*
X+1692272Y+5974160D01*
X+1910712Y+5974160D02*
X+1971672Y+5974160D01*
X+2103752Y+5974160D02*
X+2164712Y+5974160D01*
X+2291712Y+5974160D02*
X+2367912Y+5974160D01*
X+909952Y+5979240D02*
X+970912Y+5979240D01*
X+1026792Y+5979240D02*
X+1087752Y+5979240D01*
X+1209672Y+5979240D02*
X+1270632Y+5979240D01*
X+1306192Y+5979240D02*
X+1423032Y+5979240D01*
X+1631312Y+5979240D02*
X+1692272Y+5979240D01*
X+1910712Y+5979240D02*
X+1971672Y+5979240D01*
X+2103752Y+5979240D02*
X+2164712Y+5979240D01*
X+2286632Y+5979240D02*
X+2357752Y+5979240D01*
X+909952Y+5984320D02*
X+970912Y+5984320D01*
X+1026792Y+5984320D02*
X+1087752Y+5984320D01*
X+1209672Y+5984320D02*
X+1270632Y+5984320D01*
X+1306192Y+5984320D02*
X+1423032Y+5984320D01*
X+1631312Y+5984320D02*
X+1692272Y+5984320D01*
X+1910712Y+5984320D02*
X+1971672Y+5984320D01*
X+2103752Y+5984320D02*
X+2164712Y+5984320D01*
X+2286632Y+5984320D02*
X+2352672Y+5984320D01*
X+909952Y+5989400D02*
X+970912Y+5989400D01*
X+1026792Y+5989400D02*
X+1087752Y+5989400D01*
X+1209672Y+5989400D02*
X+1270632Y+5989400D01*
X+1306192Y+5989400D02*
X+1423032Y+5989400D01*
X+1631312Y+5989400D02*
X+1692272Y+5989400D01*
X+1910712Y+5989400D02*
X+1971672Y+5989400D01*
X+2103752Y+5989400D02*
X+2164712Y+5989400D01*
X+2286632Y+5989400D02*
X+2352672Y+5989400D01*
X+2469512Y+5989400D02*
X+2499992Y+5989400D01*
X+909952Y+5994480D02*
X+970912Y+5994480D01*
X+1026792Y+5994480D02*
X+1087752Y+5994480D01*
X+1209672Y+5994480D02*
X+1270632Y+5994480D01*
X+1306192Y+5994480D02*
X+1423032Y+5994480D01*
X+1631312Y+5994480D02*
X+1692272Y+5994480D01*
X+1910712Y+5994480D02*
X+1971672Y+5994480D01*
X+2103752Y+5994480D02*
X+2164712Y+5994480D01*
X+2286632Y+5994480D02*
X+2347592Y+5994480D01*
X+2469512Y+5994480D02*
X+2530472Y+5994480D01*
X+909952Y+5999560D02*
X+970912Y+5999560D01*
X+1026792Y+5999560D02*
X+1087752Y+5999560D01*
X+1209672Y+5999560D02*
X+1270632Y+5999560D01*
X+1306192Y+5999560D02*
X+1423032Y+5999560D01*
X+1631312Y+5999560D02*
X+1692272Y+5999560D01*
X+1910712Y+5999560D02*
X+1971672Y+5999560D01*
X+2103752Y+5999560D02*
X+2164712Y+5999560D01*
X+2286632Y+5999560D02*
X+2347592Y+5999560D01*
X+2464432Y+5999560D02*
X+2530472Y+5999560D01*
X+909952Y+6004640D02*
X+970912Y+6004640D01*
X+1026792Y+6004640D02*
X+1092832Y+6004640D01*
X+1204592Y+6004640D02*
X+1265552Y+6004640D01*
X+1306192Y+6004640D02*
X+1423032Y+6004640D01*
X+1631312Y+6004640D02*
X+1692272Y+6004640D01*
X+1910712Y+6004640D02*
X+1971672Y+6004640D01*
X+2103752Y+6004640D02*
X+2164712Y+6004640D01*
X+2286632Y+6004640D02*
X+2347592Y+6004640D01*
X+2464432Y+6004640D02*
X+2530472Y+6004640D01*
X+909952Y+6009720D02*
X+970912Y+6009720D01*
X+1031872Y+6009720D02*
X+1092832Y+6009720D01*
X+1204592Y+6009720D02*
X+1265552Y+6009720D01*
X+1631312Y+6009720D02*
X+1692272Y+6009720D01*
X+1910712Y+6009720D02*
X+1971672Y+6009720D01*
X+2103752Y+6009720D02*
X+2164712Y+6009720D01*
X+2286632Y+6009720D02*
X+2347592Y+6009720D01*
X+2464432Y+6009720D02*
X+2525392Y+6009720D01*
X+909952Y+6014800D02*
X+970912Y+6014800D01*
X+1031872Y+6014800D02*
X+1092832Y+6014800D01*
X+1204592Y+6014800D02*
X+1265552Y+6014800D01*
X+1631312Y+6014800D02*
X+1692272Y+6014800D01*
X+1910712Y+6014800D02*
X+1971672Y+6014800D01*
X+2103752Y+6014800D02*
X+2164712Y+6014800D01*
X+2286632Y+6014800D02*
X+2347592Y+6014800D01*
X+2459352Y+6014800D02*
X+2525392Y+6014800D01*
X+909952Y+6019880D02*
X+970912Y+6019880D01*
X+1031872Y+6019880D02*
X+1097912Y+6019880D01*
X+1199512Y+6019880D02*
X+1265552Y+6019880D01*
X+1631312Y+6019880D02*
X+1692272Y+6019880D01*
X+1910712Y+6019880D02*
X+1971672Y+6019880D01*
X+2103752Y+6019880D02*
X+2164712Y+6019880D01*
X+2286632Y+6019880D02*
X+2352672Y+6019880D01*
X+2459352Y+6019880D02*
X+2525392Y+6019880D01*
X+909952Y+6024960D02*
X+970912Y+6024960D01*
X+1031872Y+6024960D02*
X+1097912Y+6024960D01*
X+1194432Y+6024960D02*
X+1265552Y+6024960D01*
X+1631312Y+6024960D02*
X+1692272Y+6024960D01*
X+1910712Y+6024960D02*
X+1971672Y+6024960D01*
X+2103752Y+6024960D02*
X+2164712Y+6024960D01*
X+2291712Y+6024960D02*
X+2357752Y+6024960D01*
X+2454272Y+6024960D02*
X+2525392Y+6024960D01*
X+909952Y+6030040D02*
X+970912Y+6030040D01*
X+1031872Y+6030040D02*
X+1102992Y+6030040D01*
X+1189352Y+6030040D02*
X+1260472Y+6030040D01*
X+1631312Y+6030040D02*
X+1692272Y+6030040D01*
X+1910712Y+6030040D02*
X+1971672Y+6030040D01*
X+2103752Y+6030040D02*
X+2164712Y+6030040D01*
X+2291712Y+6030040D02*
X+2362832Y+6030040D01*
X+2449192Y+6030040D02*
X+2520312Y+6030040D01*
X+909952Y+6035120D02*
X+970912Y+6035120D01*
X+1036952Y+6035120D02*
X+1113152Y+6035120D01*
X+1184272Y+6035120D02*
X+1260472Y+6035120D01*
X+1631312Y+6035120D02*
X+1692272Y+6035120D01*
X+1910712Y+6035120D02*
X+1971672Y+6035120D01*
X+2103752Y+6035120D02*
X+2164712Y+6035120D01*
X+2291712Y+6035120D02*
X+2367912Y+6035120D01*
X+2439032Y+6035120D02*
X+2520312Y+6035120D01*
X+909952Y+6040200D02*
X+970912Y+6040200D01*
X+1036952Y+6040200D02*
X+1123312Y+6040200D01*
X+1169032Y+6040200D02*
X+1260472Y+6040200D01*
X+1631312Y+6040200D02*
X+1692272Y+6040200D01*
X+1743072Y+6040200D02*
X+1971672Y+6040200D01*
X+2103752Y+6040200D02*
X+2164712Y+6040200D01*
X+2296792Y+6040200D02*
X+2383152Y+6040200D01*
X+2428872Y+6040200D02*
X+2515232Y+6040200D01*
X+909952Y+6045280D02*
X+970912Y+6045280D01*
X+1042032Y+6045280D02*
X+1255392Y+6045280D01*
X+1631312Y+6045280D02*
X+1692272Y+6045280D01*
X+1743072Y+6045280D02*
X+1971672Y+6045280D01*
X+2103752Y+6045280D02*
X+2164712Y+6045280D01*
X+2296792Y+6045280D02*
X+2515232Y+6045280D01*
X+909952Y+6050360D02*
X+970912Y+6050360D01*
X+1042032Y+6050360D02*
X+1250312Y+6050360D01*
X+1631312Y+6050360D02*
X+1692272Y+6050360D01*
X+1743072Y+6050360D02*
X+1971672Y+6050360D01*
X+2103752Y+6050360D02*
X+2164712Y+6050360D01*
X+2301872Y+6050360D02*
X+2510152Y+6050360D01*
X+909952Y+6055440D02*
X+970912Y+6055440D01*
X+1047112Y+6055440D02*
X+1250312Y+6055440D01*
X+1631312Y+6055440D02*
X+1692272Y+6055440D01*
X+1743072Y+6055440D02*
X+1971672Y+6055440D01*
X+2103752Y+6055440D02*
X+2164712Y+6055440D01*
X+2306952Y+6055440D02*
X+2505072Y+6055440D01*
X+909952Y+6060520D02*
X+970912Y+6060520D01*
X+1052192Y+6060520D02*
X+1245232Y+6060520D01*
X+1631312Y+6060520D02*
X+1692272Y+6060520D01*
X+1743072Y+6060520D02*
X+1971672Y+6060520D01*
X+2103752Y+6060520D02*
X+2164712Y+6060520D01*
X+2312032Y+6060520D02*
X+2499992Y+6060520D01*
X+909952Y+6065600D02*
X+970912Y+6065600D01*
X+1057272Y+6065600D02*
X+1240152Y+6065600D01*
X+1631312Y+6065600D02*
X+1692272Y+6065600D01*
X+1743072Y+6065600D02*
X+1971672Y+6065600D01*
X+2103752Y+6065600D02*
X+2164712Y+6065600D01*
X+2317112Y+6065600D02*
X+2494912Y+6065600D01*
X+909952Y+6070680D02*
X+970912Y+6070680D01*
X+1062352Y+6070680D02*
X+1235072Y+6070680D01*
X+1631312Y+6070680D02*
X+1692272Y+6070680D01*
X+1743072Y+6070680D02*
X+1971672Y+6070680D01*
X+2103752Y+6070680D02*
X+2164712Y+6070680D01*
X+2322192Y+6070680D02*
X+2489832Y+6070680D01*
X+909952Y+6075760D02*
X+970912Y+6075760D01*
X+1067432Y+6075760D02*
X+1224912Y+6075760D01*
X+1631312Y+6075760D02*
X+1692272Y+6075760D01*
X+1743072Y+6075760D02*
X+1971672Y+6075760D01*
X+2103752Y+6075760D02*
X+2164712Y+6075760D01*
X+2327272Y+6075760D02*
X+2484752Y+6075760D01*
X+909952Y+6080840D02*
X+970912Y+6080840D01*
X+1077592Y+6080840D02*
X+1214752Y+6080840D01*
X+1631312Y+6080840D02*
X+1692272Y+6080840D01*
X+1743072Y+6080840D02*
X+1971672Y+6080840D01*
X+2103752Y+6080840D02*
X+2164712Y+6080840D01*
X+2337432Y+6080840D02*
X+2474592Y+6080840D01*
X+909952Y+6085920D02*
X+970912Y+6085920D01*
X+1092832Y+6085920D02*
X+1204592Y+6085920D01*
X+1631312Y+6085920D02*
X+1692272Y+6085920D01*
X+1743072Y+6085920D02*
X+1971672Y+6085920D01*
X+2103752Y+6085920D02*
X+2164712Y+6085920D01*
X+2352672Y+6085920D02*
X+2459352Y+6085920D01*
X+1113152Y+6091000D02*
X+1184272Y+6091000D01*
X+2372992Y+6091000D02*
X+2439032Y+6091000D01*
X+727072Y+6116400D02*
X+2545712Y+6116400D01*
X+727072Y+6121480D02*
X+2545712Y+6121480D01*
X+727072Y+6126560D02*
X+2545712Y+6126560D01*
X+727072Y+6131640D02*
X+2545712Y+6131640D01*
X+727072Y+6136720D02*
X+2545712Y+6136720D01*
X+727072Y+6141800D02*
X+2545712Y+6141800D01*
X+727072Y+6146880D02*
X+2545712Y+6146880D01*
X+727072Y+6151960D02*
X+2545712Y+6151960D01*
X+727072Y+6157040D02*
X+2545712Y+6157040D01*
D71*
X+1106000Y+5023160D02*
X+1121875Y+5007920D01*
X+1185375Y+5007920D01*
X+1201250Y+5023160D01*
X+1201250Y+5038400D01*
X+1185375Y+5053640D01*
X+1121875Y+5053640D01*
X+1106000Y+5068880D01*
X+1106000Y+5084120D01*
X+1121875Y+5099360D01*
X+1185375Y+5099360D01*
X+1201250Y+5084120D01*
X+1233000Y+5099360D02*
X+1328250Y+5099360D01*
X+1280625Y+5099360D02*
X+1280625Y+5007920D01*
X+1360000Y+5007920D02*
X+1360000Y+5099360D01*
X+1439375Y+5099360D01*
X+1455250Y+5084120D01*
X+1455250Y+5068880D01*
X+1439375Y+5053640D01*
X+1360000Y+5053640D01*
X+1518750Y+5068880D02*
X+1550500Y+5099360D01*
X+1550500Y+5007920D01*
X+2693000Y+7583000D02*
X+2947000Y+7583000D01*
X+2947000Y+8091000D01*
X+2693000Y+8091000D01*
X+2693000Y+7583000D01*
X+2652360Y+7646500D02*
X+2560920Y+7646500D01*
X+2560920Y+7725875D01*
X+2576160Y+7741750D01*
X+2591400Y+7741750D01*
X+2606640Y+7725875D01*
X+2606640Y+7646500D01*
X+2560920Y+7789375D02*
X+2560920Y+7852875D01*
X+2560920Y+7821125D02*
X+2652360Y+7821125D01*
X+2652360Y+7789375D02*
X+2652360Y+7852875D01*
X+2560920Y+7900500D02*
X+2652360Y+7900500D01*
X+2652360Y+7995750D01*
X+553000Y+8803000D02*
X+1061000Y+8803000D01*
X+1061000Y+9057000D01*
X+553000Y+9057000D01*
X+553000Y+8803000D01*
X+553000Y+9112880D02*
X+568875Y+9097640D01*
X+632375Y+9097640D01*
X+648250Y+9112880D01*
X+648250Y+9128120D01*
X+632375Y+9143360D01*
X+568875Y+9143360D01*
X+553000Y+9158600D01*
X+553000Y+9173840D01*
X+568875Y+9189080D01*
X+632375Y+9189080D01*
X+648250Y+9173840D01*
X+680000Y+9097640D02*
X+680000Y+9158600D01*
X+711750Y+9189080D01*
X+743500Y+9189080D01*
X+775250Y+9158600D01*
X+775250Y+9097640D01*
X+680000Y+9128120D02*
X+775250Y+9128120D01*
X+807000Y+9097640D02*
X+807000Y+9189080D01*
X+886375Y+9189080D01*
X+902250Y+9173840D01*
X+902250Y+9158600D01*
X+886375Y+9143360D01*
X+807000Y+9143360D01*
X+886375Y+9143360D02*
X+902250Y+9128120D01*
X+902250Y+9097640D01*
X+934000Y+9128120D02*
X+934000Y+9112880D01*
X+949875Y+9097640D01*
X+1013375Y+9097640D01*
X+1029250Y+9112880D01*
X+1029250Y+9189080D01*
X+2683000Y+6853000D02*
X+2937000Y+6853000D01*
X+2937000Y+7361000D01*
X+2683000Y+7361000D01*
X+2683000Y+6853000D01*
X+2581400Y+6726000D02*
X+2550920Y+6757750D01*
X+2550920Y+6789500D01*
X+2581400Y+6821250D01*
X+2611880Y+6821250D01*
X+2642360Y+6789500D01*
X+2642360Y+6757750D01*
X+2611880Y+6726000D01*
X+2581400Y+6726000D01*
X+2642360Y+6853000D02*
X+2550920Y+6853000D01*
X+2642360Y+6948250D01*
X+2550920Y+6948250D01*
X+2596640Y+6995875D02*
X+2596640Y+7075250D01*
X+2581400Y+7107000D02*
X+2550920Y+7138750D01*
X+2550920Y+7170500D01*
X+2581400Y+7202250D01*
X+2611880Y+7202250D01*
X+2642360Y+7170500D01*
X+2642360Y+7138750D01*
X+2611880Y+7107000D01*
X+2581400Y+7107000D01*
X+2642360Y+7234000D02*
X+2550920Y+7234000D01*
X+2550920Y+7329250D01*
X+2596640Y+7234000D02*
X+2596640Y+7297500D01*
X+2642360Y+7361000D02*
X+2550920Y+7361000D01*
X+2550920Y+7456250D01*
X+2596640Y+7361000D02*
X+2596640Y+7424500D01*
X+553000Y+4530000D02*
X+426000Y+4530000D01*
X-82000Y+4466500D02*
X+426000Y+4466500D01*
X+426000Y+4593500D01*
X-82000Y+4593500D01*
X-82000Y+4466500D01*
X-82000Y+4530000D02*
X-209000Y+4530000D01*
X+45000Y+4334420D02*
X+45000Y+4425860D01*
X+124375Y+4425860D01*
X+140250Y+4410620D01*
X+140250Y+4395380D01*
X+124375Y+4380140D01*
X+45000Y+4380140D01*
X+124375Y+4380140D02*
X+140250Y+4364900D01*
X+140250Y+4334420D01*
X+203750Y+4395380D02*
X+235500Y+4425860D01*
X+235500Y+4334420D01*
X-576000Y+4578251D02*
X-576827Y+4598734D01*
X-583545Y+4639701D01*
X-597563Y+4680668D01*
X-620341Y+4721635D01*
X-655141Y+4762480D01*
X-696108Y+4794096D01*
X-737075Y+4814643D01*
X-778042Y+4826880D01*
X-819009Y+4832013D01*
X-830000Y+4832251D01*
X-1084000Y+4578251D02*
X-1083173Y+4598734D01*
X-1076455Y+4639701D01*
X-1062437Y+4680668D01*
X-1039659Y+4721635D01*
X-1004859Y+4762480D01*
X-963892Y+4794096D01*
X-922925Y+4814643D01*
X-881958Y+4826880D01*
X-840991Y+4832013D01*
X-830000Y+4832251D01*
X-1084000Y+4578251D02*
X-1083173Y+4557768D01*
X-1076455Y+4516801D01*
X-1062437Y+4475834D01*
X-1039659Y+4434867D01*
X-1004859Y+4394022D01*
X-963892Y+4362406D01*
X-922925Y+4341859D01*
X-881958Y+4329622D01*
X-840991Y+4324489D01*
X-830000Y+4324251D01*
X-576000Y+4578251D02*
X-576827Y+4557768D01*
X-583545Y+4516801D01*
X-597563Y+4475834D01*
X-620341Y+4434867D01*
X-655141Y+4394022D01*
X-696108Y+4362406D01*
X-737075Y+4341859D01*
X-778042Y+4329622D01*
X-819009Y+4324489D01*
X-830000Y+4324251D01*
X-1084000Y+4260751D02*
X-1084000Y+4387751D01*
X-1147500Y+4324251D02*
X-1020500Y+4324251D01*
X-1188140Y+4419501D02*
X-1279580Y+4419501D01*
X-1279580Y+4483001D01*
X-1249100Y+4514751D01*
X-1218620Y+4514751D01*
X-1188140Y+4483001D01*
X-1188140Y+4419501D01*
X-1249100Y+4578251D02*
X-1279580Y+4610001D01*
X-1188140Y+4610001D01*
M02*
