G04 PROTEUS GERBER X2 FILE*
%TF.GenerationSoftware,Labcenter,Proteus,8.9-SP0-Build27865*%
%TF.CreationDate,2021-05-25T10:58:27+00:00*%
%TF.FileFunction,Legend,Top*%
%TF.FilePolarity,Positive*%
%TF.Part,Single*%
%TF.SameCoordinates,{7e8d9f27-8a4e-4830-a77b-d38f9a277b4e}*%
%FSLAX45Y45*%
%MOMM*%
G01*
%TA.AperFunction,Profile*%
%ADD16C,0.203200*%
%TA.AperFunction,Material*%
%ADD19C,0.100000*%
%ADD70C,0.203200*%
%TD.AperFunction*%
D16*
X+30000Y-5810000D02*
X+9990000Y-5810000D01*
X+9990000Y-390000D01*
X+30000Y-390000D01*
X+30000Y-5810000D01*
D19*
X+4073000Y-1750000D02*
X+4073000Y-5306000D01*
X+5851000Y-5306000D02*
X+5851000Y-1750000D01*
D70*
X+3946080Y-3655000D02*
X+4022280Y-3655000D01*
X+4037520Y-3639125D01*
X+4037520Y-3575625D01*
X+4022280Y-3559750D01*
X+3946080Y-3559750D01*
X+3976560Y-3496250D02*
X+3946080Y-3464500D01*
X+4037520Y-3464500D01*
D19*
X+1600000Y-4928000D02*
X+1600000Y-5690000D01*
X+2750000Y-5690000D01*
X+2750000Y-5436000D01*
X+2450000Y-4290000D02*
X+1600000Y-4290000D01*
X+1600000Y-4420000D01*
D70*
X+1473080Y-5268000D02*
X+1549280Y-5268000D01*
X+1564520Y-5252125D01*
X+1564520Y-5188625D01*
X+1549280Y-5172750D01*
X+1473080Y-5172750D01*
X+1488320Y-5125125D02*
X+1473080Y-5109250D01*
X+1473080Y-5061625D01*
X+1488320Y-5045750D01*
X+1503560Y-5045750D01*
X+1518800Y-5061625D01*
X+1518800Y-5109250D01*
X+1534040Y-5125125D01*
X+1564520Y-5125125D01*
X+1564520Y-5045750D01*
X+2533000Y-987000D02*
X+3041000Y-987000D01*
X+3041000Y-733000D01*
X+2533000Y-733000D01*
X+2533000Y-987000D01*
X+2342500Y-692360D02*
X+2342500Y-631400D01*
X+2374250Y-600920D01*
X+2406000Y-600920D01*
X+2437750Y-631400D01*
X+2437750Y-692360D01*
X+2342500Y-661880D02*
X+2437750Y-661880D01*
X+2469500Y-692360D02*
X+2469500Y-600920D01*
X+2564750Y-692360D01*
X+2564750Y-600920D01*
X+2596500Y-692360D02*
X+2596500Y-631400D01*
X+2628250Y-600920D01*
X+2660000Y-600920D01*
X+2691750Y-631400D01*
X+2691750Y-692360D01*
X+2596500Y-661880D02*
X+2691750Y-661880D01*
X+2723500Y-692360D02*
X+2723500Y-600920D01*
X+2818750Y-600920D02*
X+2818750Y-692360D01*
X+2723500Y-646640D02*
X+2818750Y-646640D01*
X+2850500Y-600920D02*
X+2945750Y-600920D01*
X+2898125Y-600920D02*
X+2898125Y-692360D01*
X+2977500Y-692360D02*
X+2977500Y-631400D01*
X+3009250Y-600920D01*
X+3041000Y-600920D01*
X+3072750Y-631400D01*
X+3072750Y-692360D01*
X+2977500Y-661880D02*
X+3072750Y-661880D01*
X+3104500Y-692360D02*
X+3104500Y-600920D01*
X+3183875Y-600920D01*
X+3199750Y-616160D01*
X+3199750Y-631400D01*
X+3183875Y-646640D01*
X+3104500Y-646640D01*
X+3183875Y-646640D02*
X+3199750Y-661880D01*
X+3199750Y-692360D01*
X+3580000Y-5183000D02*
X+3580000Y-5056000D01*
X+3516500Y-5056000D02*
X+3643500Y-5056000D01*
X+3643500Y-4548000D01*
X+3516500Y-4548000D01*
X+3516500Y-5056000D01*
X+3580000Y-4548000D02*
X+3580000Y-4421000D01*
X+3475860Y-4929000D02*
X+3384420Y-4929000D01*
X+3384420Y-4849625D01*
X+3399660Y-4833750D01*
X+3414900Y-4833750D01*
X+3430140Y-4849625D01*
X+3430140Y-4929000D01*
X+3430140Y-4849625D02*
X+3445380Y-4833750D01*
X+3475860Y-4833750D01*
X+3414900Y-4770250D02*
X+3384420Y-4738500D01*
X+3475860Y-4738500D01*
X+3199000Y-3837000D02*
X+3707000Y-3837000D01*
X+3707000Y-3583000D01*
X+3199000Y-3583000D01*
X+3199000Y-3837000D01*
X+3262500Y-3877640D02*
X+3262500Y-3969080D01*
X+3357750Y-3969080D01*
X+3484750Y-3969080D02*
X+3389500Y-3969080D01*
X+3389500Y-3877640D01*
X+3484750Y-3877640D01*
X+3389500Y-3923360D02*
X+3453000Y-3923360D01*
X+3516500Y-3969080D02*
X+3516500Y-3877640D01*
X+3580000Y-3877640D01*
X+3611750Y-3908120D01*
X+3611750Y-3938600D01*
X+3580000Y-3969080D01*
X+3516500Y-3969080D01*
X+2539000Y-1847000D02*
X+3301000Y-1847000D01*
X+3301000Y-1593000D01*
X+2539000Y-1593000D01*
X+2539000Y-1847000D01*
X+2475500Y-1963840D02*
X+2491375Y-1979080D01*
X+2554875Y-1979080D01*
X+2570750Y-1963840D01*
X+2570750Y-1948600D01*
X+2554875Y-1933360D01*
X+2491375Y-1933360D01*
X+2475500Y-1918120D01*
X+2475500Y-1902880D01*
X+2491375Y-1887640D01*
X+2554875Y-1887640D01*
X+2570750Y-1902880D01*
X+2602500Y-1979080D02*
X+2602500Y-1918120D01*
X+2634250Y-1887640D01*
X+2666000Y-1887640D01*
X+2697750Y-1918120D01*
X+2697750Y-1979080D01*
X+2602500Y-1948600D02*
X+2697750Y-1948600D01*
X+2793000Y-1948600D02*
X+2824750Y-1948600D01*
X+2824750Y-1979080D01*
X+2761250Y-1979080D01*
X+2729500Y-1948600D01*
X+2729500Y-1918120D01*
X+2761250Y-1887640D01*
X+2808875Y-1887640D01*
X+2824750Y-1902880D01*
X+2856500Y-1963840D02*
X+2872375Y-1979080D01*
X+2935875Y-1979080D01*
X+2951750Y-1963840D01*
X+2951750Y-1948600D01*
X+2935875Y-1933360D01*
X+2872375Y-1933360D01*
X+2856500Y-1918120D01*
X+2856500Y-1902880D01*
X+2872375Y-1887640D01*
X+2935875Y-1887640D01*
X+2951750Y-1902880D01*
X+3078750Y-1979080D02*
X+2983500Y-1979080D01*
X+2983500Y-1887640D01*
X+3078750Y-1887640D01*
X+2983500Y-1933360D02*
X+3047000Y-1933360D01*
X+3110500Y-1979080D02*
X+3110500Y-1887640D01*
X+3205750Y-1979080D01*
X+3205750Y-1887640D01*
X+3237500Y-1963840D02*
X+3253375Y-1979080D01*
X+3316875Y-1979080D01*
X+3332750Y-1963840D01*
X+3332750Y-1948600D01*
X+3316875Y-1933360D01*
X+3253375Y-1933360D01*
X+3237500Y-1918120D01*
X+3237500Y-1902880D01*
X+3253375Y-1887640D01*
X+3316875Y-1887640D01*
X+3332750Y-1902880D01*
X+815000Y-997000D02*
X+2085000Y-997000D01*
X+2085000Y-743000D01*
X+815000Y-743000D01*
X+815000Y-997000D01*
X+1132500Y-1129080D02*
X+1132500Y-1037640D01*
X+1227750Y-1037640D02*
X+1227750Y-1129080D01*
X+1132500Y-1083360D02*
X+1227750Y-1083360D01*
X+1354750Y-1113840D02*
X+1338875Y-1129080D01*
X+1291250Y-1129080D01*
X+1259500Y-1098600D01*
X+1259500Y-1068120D01*
X+1291250Y-1037640D01*
X+1338875Y-1037640D01*
X+1354750Y-1052880D01*
X+1402375Y-1083360D02*
X+1481750Y-1083360D01*
X+1545250Y-1068120D02*
X+1577000Y-1037640D01*
X+1577000Y-1129080D01*
X+1656375Y-1052880D02*
X+1672250Y-1037640D01*
X+1719875Y-1037640D01*
X+1735750Y-1052880D01*
X+1735750Y-1068120D01*
X+1719875Y-1083360D01*
X+1672250Y-1083360D01*
X+1656375Y-1098600D01*
X+1656375Y-1129080D01*
X+1735750Y-1129080D01*
X+2899000Y-2687000D02*
X+3407000Y-2687000D01*
X+3407000Y-2433000D01*
X+2899000Y-2433000D01*
X+2899000Y-2687000D01*
X+3026000Y-2819080D02*
X+3026000Y-2727640D01*
X+3105375Y-2727640D01*
X+3121250Y-2742880D01*
X+3121250Y-2758120D01*
X+3105375Y-2773360D01*
X+3026000Y-2773360D01*
X+3105375Y-2773360D02*
X+3121250Y-2788600D01*
X+3121250Y-2819080D01*
X+3153000Y-2727640D02*
X+3248250Y-2819080D01*
X+3153000Y-2819080D02*
X+3248250Y-2727640D01*
X+2899000Y-3167000D02*
X+3407000Y-3167000D01*
X+3407000Y-2913000D01*
X+2899000Y-2913000D01*
X+2899000Y-3167000D01*
X+3086000Y-2830920D02*
X+3181250Y-2830920D01*
X+3133625Y-2830920D02*
X+3133625Y-2922360D01*
X+3213000Y-2830920D02*
X+3308250Y-2922360D01*
X+3213000Y-2922360D02*
X+3308250Y-2830920D01*
M02*
