G04 PROTEUS GERBER X2 FILE*
%TF.GenerationSoftware,Labcenter,Proteus,8.9-SP0-Build27865*%
%TF.CreationDate,2021-05-25T10:58:27+00:00*%
%TF.FileFunction,Plated,1,2,PTH*%
%TF.FilePolarity,Positive*%
%TF.Part,Single*%
%TF.SameCoordinates,{7e8d9f27-8a4e-4830-a77b-d38f9a277b4e}*%
%FSLAX45Y45*%
%MOMM*%
G01*
%TA.AperFunction,ComponentDrill*%
%ADD33C,1.016000*%
%ADD34C,0.381000*%
%TA.AperFunction,ComponentDrill*%
%ADD35C,1.970000*%
%ADD36C,1.524000*%
%TA.AperFunction,ComponentDrill*%
%ADD37C,0.762000*%
%TD.AperFunction*%
D33*
X+4200000Y-1750000D03*
X+4200000Y-2004000D03*
X+4200000Y-2258000D03*
X+4200000Y-2512000D03*
X+4200000Y-2766000D03*
X+4200000Y-3020000D03*
X+4200000Y-3274000D03*
X+4200000Y-3528000D03*
X+4200000Y-3782000D03*
X+4200000Y-4036000D03*
X+4200000Y-4290000D03*
X+4200000Y-4544000D03*
X+4200000Y-4798000D03*
X+4200000Y-5052000D03*
X+4200000Y-5306000D03*
X+5724000Y-1750000D03*
X+5724000Y-2004000D03*
X+5724000Y-2258000D03*
X+5724000Y-2512000D03*
X+5724000Y-2766000D03*
X+5724000Y-3020000D03*
X+5724000Y-3274000D03*
X+5724000Y-3528000D03*
X+5724000Y-3782000D03*
X+5724000Y-4036000D03*
X+5724000Y-4290000D03*
X+5724000Y-4544000D03*
X+5724000Y-4798000D03*
X+5724000Y-5052000D03*
X+5724000Y-5306000D03*
D34*
X+4200000Y-1496000D03*
X+4200000Y-5560000D03*
X+5724000Y-5560000D03*
X+5724000Y-1496000D03*
D35*
X+2200000Y-5490000D03*
D36*
X+1680000Y-4710000D03*
X+1950000Y-4850000D03*
D35*
X+2600000Y-4390000D03*
X+2650000Y-5150000D03*
D33*
X+2660000Y-860000D03*
X+2914000Y-860000D03*
D37*
X+3580000Y-5310000D03*
X+3580000Y-4294000D03*
D33*
X+3580000Y-3710000D03*
X+3326000Y-3710000D03*
X+3174000Y-1720000D03*
X+2920000Y-1720000D03*
X+2666000Y-1720000D03*
X+1958000Y-870000D03*
X+1704000Y-870000D03*
X+1450000Y-870000D03*
X+1196000Y-870000D03*
X+942000Y-870000D03*
X+3280000Y-2560000D03*
X+3026000Y-2560000D03*
X+3026000Y-3040000D03*
X+3280000Y-3040000D03*
M02*
