G04 PROTEUS GERBER X2 FILE*
%TF.GenerationSoftware,Labcenter,Proteus,8.9-SP0-Build27865*%
%TF.CreationDate,2021-05-25T10:58:27+00:00*%
%TF.FileFunction,AssemblyDrawing,Top*%
%TF.FilePolarity,Positive*%
%TF.Part,Single*%
%TF.SameCoordinates,{7e8d9f27-8a4e-4830-a77b-d38f9a277b4e}*%
%FSLAX45Y45*%
%MOMM*%
G01*
%TA.AperFunction,Profile*%
%ADD16C,0.203200*%
%TA.AperFunction,Material*%
%ADD19C,0.100000*%
%ADD24C,0.762000*%
%ADD25C,1.200000*%
%ADD26C,1.184000*%
%ADD27C,0.669330*%
%ADD70C,0.203200*%
%ADD28C,0.812800*%
%ADD29C,0.066040*%
%ADD72C,0.711200*%
%ADD73C,0.106680*%
%ADD30C,0.132080*%
%ADD31C,0.097790*%
%ADD32C,0.164590*%
%TD.AperFunction*%
D16*
X+30000Y-5810000D02*
X+9990000Y-5810000D01*
X+9990000Y-390000D01*
X+30000Y-390000D01*
X+30000Y-5810000D01*
D19*
X+3967000Y-5793000D02*
X+5957000Y-5793000D01*
X+5957000Y-1263000D01*
X+3967000Y-1263000D01*
X+3967000Y-5793000D01*
D24*
X+4200000Y-1750000D02*
X+4200000Y-1750000D01*
D25*
X+4602000Y-4488000D02*
X+5202000Y-4488000D01*
X+5322000Y-4368000D01*
X+5322000Y-3888000D01*
X+5202000Y-3768000D01*
X+4602000Y-3768000D01*
X+4842000Y-3288000D02*
X+4602000Y-3048000D01*
X+5322000Y-3048000D01*
D19*
X+1432000Y-6140000D02*
X+2898000Y-6140000D01*
X+2898000Y-4142000D01*
X+1432000Y-4142000D01*
X+1432000Y-6140000D01*
D26*
X+2200000Y-5490000D02*
X+2200000Y-5490000D01*
D27*
X+1964200Y-5676466D02*
X+2298867Y-5676466D01*
X+2365800Y-5609533D01*
X+2365800Y-5341800D01*
X+2298867Y-5274867D01*
X+1964200Y-5274867D01*
X+2031133Y-5074067D02*
X+1964200Y-5007134D01*
X+1964200Y-4806334D01*
X+2031133Y-4739401D01*
X+2098067Y-4739401D01*
X+2165000Y-4806334D01*
X+2165000Y-5007134D01*
X+2231933Y-5074067D01*
X+2365800Y-5074067D01*
X+2365800Y-4739401D01*
D70*
X+2522840Y-997160D02*
X+3051160Y-997160D01*
X+3051160Y-722840D01*
X+2522840Y-722840D01*
X+2522840Y-997160D01*
D28*
X+2660000Y-860000D02*
X+2660000Y-860000D01*
D29*
X+2602088Y-879812D02*
X+2602088Y-853396D01*
X+2615296Y-840188D01*
X+2628504Y-840188D01*
X+2641712Y-853396D01*
X+2641712Y-879812D01*
X+2602088Y-866604D02*
X+2641712Y-866604D01*
X+2654920Y-879812D02*
X+2654920Y-840188D01*
X+2694544Y-879812D01*
X+2694544Y-840188D01*
X+2707752Y-879812D02*
X+2707752Y-853396D01*
X+2720960Y-840188D01*
X+2734168Y-840188D01*
X+2747376Y-853396D01*
X+2747376Y-879812D01*
X+2707752Y-866604D02*
X+2747376Y-866604D01*
X+2760584Y-879812D02*
X+2760584Y-840188D01*
X+2800208Y-840188D02*
X+2800208Y-879812D01*
X+2760584Y-860000D02*
X+2800208Y-860000D01*
X+2813416Y-840188D02*
X+2853040Y-840188D01*
X+2833228Y-840188D02*
X+2833228Y-879812D01*
X+2866248Y-879812D02*
X+2866248Y-853396D01*
X+2879456Y-840188D01*
X+2892664Y-840188D01*
X+2905872Y-853396D01*
X+2905872Y-879812D01*
X+2866248Y-866604D02*
X+2905872Y-866604D01*
X+2919080Y-879812D02*
X+2919080Y-840188D01*
X+2952100Y-840188D01*
X+2958704Y-846792D01*
X+2958704Y-853396D01*
X+2952100Y-860000D01*
X+2919080Y-860000D01*
X+2952100Y-860000D02*
X+2958704Y-866604D01*
X+2958704Y-879812D01*
D70*
X+3491100Y-5398900D02*
X+3668900Y-5398900D01*
X+3668900Y-4205100D01*
X+3491100Y-4205100D01*
X+3491100Y-5398900D01*
D72*
X+3580000Y-5310000D02*
X+3580000Y-5310000D01*
D73*
X+3612004Y-4887344D02*
X+3547996Y-4887344D01*
X+3547996Y-4834004D01*
X+3558664Y-4823336D01*
X+3569332Y-4823336D01*
X+3580000Y-4834004D01*
X+3580000Y-4887344D01*
X+3580000Y-4834004D02*
X+3590668Y-4823336D01*
X+3612004Y-4823336D01*
X+3569332Y-4780664D02*
X+3547996Y-4759328D01*
X+3612004Y-4759328D01*
D70*
X+3188840Y-3847160D02*
X+3717160Y-3847160D01*
X+3717160Y-3572840D01*
X+3188840Y-3572840D01*
X+3188840Y-3847160D01*
D28*
X+3580000Y-3710000D02*
X+3580000Y-3710000D01*
D30*
X+3294504Y-3670376D02*
X+3294504Y-3749624D01*
X+3373752Y-3749624D01*
X+3479416Y-3749624D02*
X+3400168Y-3749624D01*
X+3400168Y-3670376D01*
X+3479416Y-3670376D01*
X+3400168Y-3710000D02*
X+3453000Y-3710000D01*
X+3505832Y-3749624D02*
X+3505832Y-3670376D01*
X+3558664Y-3670376D01*
X+3585080Y-3696792D01*
X+3585080Y-3723208D01*
X+3558664Y-3749624D01*
X+3505832Y-3749624D01*
D70*
X+2528840Y-1857160D02*
X+3311160Y-1857160D01*
X+3311160Y-1582840D01*
X+2528840Y-1582840D01*
X+2528840Y-1857160D01*
D28*
X+3174000Y-1720000D02*
X+3174000Y-1720000D01*
D31*
X+2646188Y-1739558D02*
X+2655967Y-1749337D01*
X+2695083Y-1749337D01*
X+2704862Y-1739558D01*
X+2704862Y-1729779D01*
X+2695083Y-1720000D01*
X+2655967Y-1720000D01*
X+2646188Y-1710221D01*
X+2646188Y-1700442D01*
X+2655967Y-1690663D01*
X+2695083Y-1690663D01*
X+2704862Y-1700442D01*
X+2724420Y-1749337D02*
X+2724420Y-1710221D01*
X+2743978Y-1690663D01*
X+2763536Y-1690663D01*
X+2783094Y-1710221D01*
X+2783094Y-1749337D01*
X+2724420Y-1729779D02*
X+2783094Y-1729779D01*
X+2841768Y-1729779D02*
X+2861326Y-1729779D01*
X+2861326Y-1749337D01*
X+2822210Y-1749337D01*
X+2802652Y-1729779D01*
X+2802652Y-1710221D01*
X+2822210Y-1690663D01*
X+2851547Y-1690663D01*
X+2861326Y-1700442D01*
X+2880884Y-1739558D02*
X+2890663Y-1749337D01*
X+2929779Y-1749337D01*
X+2939558Y-1739558D01*
X+2939558Y-1729779D01*
X+2929779Y-1720000D01*
X+2890663Y-1720000D01*
X+2880884Y-1710221D01*
X+2880884Y-1700442D01*
X+2890663Y-1690663D01*
X+2929779Y-1690663D01*
X+2939558Y-1700442D01*
X+3017790Y-1749337D02*
X+2959116Y-1749337D01*
X+2959116Y-1690663D01*
X+3017790Y-1690663D01*
X+2959116Y-1720000D02*
X+2998232Y-1720000D01*
X+3037348Y-1749337D02*
X+3037348Y-1690663D01*
X+3096022Y-1749337D01*
X+3096022Y-1690663D01*
X+3115580Y-1739558D02*
X+3125359Y-1749337D01*
X+3164475Y-1749337D01*
X+3174254Y-1739558D01*
X+3174254Y-1729779D01*
X+3164475Y-1720000D01*
X+3125359Y-1720000D01*
X+3115580Y-1710221D01*
X+3115580Y-1700442D01*
X+3125359Y-1690663D01*
X+3164475Y-1690663D01*
X+3174254Y-1700442D01*
D70*
X+804840Y-1007160D02*
X+2095160Y-1007160D01*
X+2095160Y-732840D01*
X+804840Y-732840D01*
X+804840Y-1007160D01*
D28*
X+1958000Y-870000D02*
X+1958000Y-870000D01*
D32*
X+1120818Y-919378D02*
X+1120818Y-820623D01*
X+1219572Y-820623D02*
X+1219572Y-919378D01*
X+1120818Y-870000D02*
X+1219572Y-870000D01*
X+1351245Y-902919D02*
X+1334786Y-919378D01*
X+1285409Y-919378D01*
X+1252491Y-886460D01*
X+1252491Y-853541D01*
X+1285409Y-820623D01*
X+1334786Y-820623D01*
X+1351245Y-837082D01*
X+1400623Y-870000D02*
X+1482918Y-870000D01*
X+1548755Y-853541D02*
X+1581673Y-820623D01*
X+1581673Y-919378D01*
X+1663969Y-837082D02*
X+1680428Y-820623D01*
X+1729805Y-820623D01*
X+1746264Y-837082D01*
X+1746264Y-853541D01*
X+1729805Y-870000D01*
X+1680428Y-870000D01*
X+1663969Y-886460D01*
X+1663969Y-919378D01*
X+1746264Y-919378D01*
D70*
X+2888840Y-2697160D02*
X+3417160Y-2697160D01*
X+3417160Y-2422840D01*
X+2888840Y-2422840D01*
X+2888840Y-2697160D01*
D28*
X+3280000Y-2560000D02*
X+3280000Y-2560000D01*
D32*
X+3021327Y-2609378D02*
X+3021327Y-2510623D01*
X+3103622Y-2510623D01*
X+3120081Y-2527082D01*
X+3120081Y-2543541D01*
X+3103622Y-2560000D01*
X+3021327Y-2560000D01*
X+3103622Y-2560000D02*
X+3120081Y-2576460D01*
X+3120081Y-2609378D01*
X+3153000Y-2510623D02*
X+3251754Y-2609378D01*
X+3153000Y-2609378D02*
X+3251754Y-2510623D01*
D70*
X+2888840Y-3177160D02*
X+3417160Y-3177160D01*
X+3417160Y-2902840D01*
X+2888840Y-2902840D01*
X+2888840Y-3177160D01*
D28*
X+3026000Y-3040000D02*
X+3026000Y-3040000D01*
D32*
X+3021327Y-2990623D02*
X+3120081Y-2990623D01*
X+3070704Y-2990623D02*
X+3070704Y-3089378D01*
X+3153000Y-2990623D02*
X+3251754Y-3089378D01*
X+3153000Y-3089378D02*
X+3251754Y-2990623D01*
M02*
